<svg width="165" height="198" viewBox="0 0 165 198" fill="none" xmlns="http://www.w3.org/2000/svg">
<g id="Asset 5500" clip-path="url(#clip0_0_652)">
<path id="Vector" d="M163.9 52.92C161.08 33 151.12 18.65 131.55 12C123.464 9.37148 114.957 8.28266 106.47 8.78999C104.16 8.88999 101.84 9.07999 99.4698 9.33999C93.3112 9.99639 87.3752 12.0115 82.0898 15.24C76.8037 12.013 70.868 9.99802 64.7098 9.33999C62.3798 9.07999 60.0498 8.88999 57.7098 8.78999C49.2459 8.29146 40.7634 9.38017 32.6998 12C13.1298 18.65 3.16979 33 0.359789 52.92C0.0480877 55.0214 -0.0724057 57.1468 -0.000211185 59.27C0.366206 66.2159 2.62803 72.9287 6.53979 78.68C8.89979 82.32 11.1698 86 13.6498 89.6C21.8298 101.4 22.8498 114.01 18.1098 127.31C16.9498 130.56 15.6098 133.74 14.3998 136.97C13.2898 139.92 26.3398 144.38 41.3998 144.38C56.4598 144.38 64.1498 141.46 64.8998 136.78C65.6498 132.1 66.5898 127.97 69.3398 124.18C70.0688 123.078 71.0234 122.144 72.1405 121.439C73.2576 120.734 74.5117 120.274 75.8198 120.09H78.0698H82.1498H86.2298H88.4798C89.7875 120.275 91.0411 120.736 92.158 121.441C93.2749 122.146 94.2298 123.079 94.9598 124.18C97.6998 127.97 98.7598 132.18 99.3898 136.78C99.9698 140.92 110.63 144.42 125.84 144.42C141.05 144.42 151.12 140.08 149.84 136.97C148.56 133.86 147.28 130.56 146.13 127.31C141.39 114.01 142.41 101.4 150.59 89.6C153.07 86.03 155.33 82.32 157.69 78.68C161.589 72.9241 163.844 66.2129 164.21 59.27C164.299 57.1483 164.195 55.0229 163.9 52.92ZM86.8098 46.2C86.6311 46.3119 86.4871 46.4712 86.3935 46.66C86.2999 46.8489 86.2606 47.0601 86.2798 47.27L87.8398 63C87.8566 63.1586 87.8399 63.319 87.7908 63.4708C87.7417 63.6226 87.6613 63.7624 87.5548 63.8811C87.4483 63.9999 87.3181 64.095 87.1725 64.1602C87.0269 64.2255 86.8693 64.2595 86.7098 64.26H78.1098C77.9524 64.2552 77.7977 64.2182 77.6553 64.1513C77.5128 64.0843 77.3856 63.9888 77.2815 63.8707C77.1775 63.7526 77.0988 63.6144 77.0503 63.4646C77.0019 63.3148 76.9847 63.1567 76.9998 63L78.5698 47.25C78.579 47.0397 78.5308 46.8309 78.4304 46.646C78.3299 46.461 78.1811 46.3068 77.9998 46.2C76.6207 45.2596 75.5791 43.9021 75.0279 42.3265C74.4767 40.7509 74.4448 39.0401 74.9368 37.4451C75.4289 35.85 76.4191 34.4546 77.7622 33.4634C79.1052 32.4722 80.7306 31.9374 82.3998 31.9374C84.069 31.9374 85.6943 32.4722 87.0374 33.4634C88.3805 34.4546 89.3707 35.85 89.8627 37.4451C90.3548 39.0401 90.3229 40.7509 89.7717 42.3265C89.2204 43.9021 88.1789 45.2596 86.7998 46.2H86.8098Z" fill="#6DA4AA"/>
<path id="Vector_2" d="M90.4598 120C91.7481 119.899 93.022 119.661 94.2598 119.29C95.4938 118.93 96.6247 118.282 97.5598 117.4C98.4595 116.5 99.084 115.362 99.3598 114.12C99.6279 112.872 99.6921 111.589 99.5498 110.32C99.3335 109.031 99.2198 107.727 99.2098 106.42C99.2485 105.039 99.8222 103.726 100.81 102.76C101.288 102.305 101.803 101.89 102.35 101.52C102.576 101.37 102.761 101.166 102.89 100.927C103.019 100.688 103.088 100.421 103.09 100.15C102.98 99.5831 102.705 99.0612 102.3 98.65C101.893 98.1911 101.459 97.757 101 97.35L100.53 96.94L101.12 96.72C102.014 96.4694 102.784 95.8957 103.28 95.11C103.632 94.2512 103.674 93.2967 103.4 92.41C103.18 91.41 102.88 90.41 102.72 89.41C102.634 88.8633 102.634 88.3067 102.72 87.76C102.815 87.1718 103.083 86.6253 103.49 86.19C104.238 85.4723 105.083 84.8631 106 84.38C106.89 83.88 107.79 83.38 108.63 82.9C109.44 82.4654 110.107 81.8055 110.55 81C110.656 80.5751 110.663 80.1317 110.571 79.7036C110.479 79.2754 110.291 78.874 110.02 78.53C107.72 75.29 105.18 72.03 102.8 68.76C101.473 67.1357 100.457 65.2816 99.7998 63.29C99.1772 61.2789 99.0031 59.1557 99.2898 57.07C99.3698 56.55 99.4698 56.07 99.5798 55.53L99.9198 54C100.01 53.51 100.12 53 100.19 52.53L100.35 51.03C100.468 50.0345 100.522 49.0324 100.51 48.03C100.536 47.0289 100.502 46.0271 100.41 45.03C100.113 41.0229 99.1536 37.0928 97.5698 33.4C94.3482 25.9136 88.9381 19.5762 82.0498 15.22C89.1609 19.3596 94.7925 25.6278 98.1498 33.14C99.8331 36.8943 100.881 40.9022 101.25 45C101.35 46.0234 101.39 47.0519 101.37 48.08C101.39 49.1056 101.34 50.1313 101.22 51.15L101.07 52.69C101 53.2 100.89 53.69 100.8 54.21L100.51 55.73C100.41 56.21 100.31 56.73 100.25 57.18C99.9841 59.1331 100.155 61.1208 100.75 63C101.375 64.8833 102.341 66.6356 103.6 68.17L107.23 73.06L109.03 75.51C109.63 76.34 110.26 77.12 110.83 78.03C111.121 78.5005 111.346 79.0085 111.5 79.54C111.668 80.1296 111.64 80.7578 111.42 81.33C111.196 81.8603 110.854 82.3324 110.42 82.71C110.024 83.0816 109.596 83.4163 109.14 83.71C108.25 84.25 107.33 84.71 106.46 85.21C105.59 85.6379 104.782 86.183 104.06 86.83C103.776 87.1728 103.58 87.5797 103.489 88.0155C103.399 88.4512 103.416 88.9025 103.54 89.33C103.69 90.33 103.97 91.25 104.19 92.28C104.502 93.3562 104.421 94.5085 103.96 95.53C103.355 96.4768 102.422 97.1674 101.34 97.47L101.46 96.83C101.959 97.2705 102.426 97.745 102.86 98.25C103.363 98.7769 103.688 99.4484 103.79 100.17C103.795 100.546 103.707 100.918 103.532 101.252C103.358 101.585 103.102 101.87 102.79 102.08C102.26 102.434 101.755 102.825 101.28 103.25C100.383 104.105 99.8489 105.272 99.7898 106.51C99.7922 107.791 99.8824 109.071 100.06 110.34C100.167 111.658 100.062 112.985 99.7498 114.27C99.4193 115.564 98.7253 116.737 97.7498 117.65C96.7642 118.524 95.5852 119.151 94.3098 119.48C93.0491 119.792 91.7582 119.967 90.4598 120Z" fill="#EEFDFF"/>
<path id="Vector_3" d="M96 144.91C95.7244 139.802 93.9891 134.881 91 130.73C90.0422 129.26 88.729 128.056 87.1819 127.229C85.6348 126.403 83.9041 125.98 82.15 126C78.76 126 75.37 126.07 71.98 126.09C70.39 126.09 68.79 126.15 67.2 126.09C59 125.56 55.64 121.6 56.88 113.51C57.38 110.22 57 107.85 53.96 105.84C51.25 104.05 53.04 102.1 55.11 100.24C51.66 99.03 51.71 96.83 52.38 94.24C53.71 89 53.44 88.53 48.7 86C48.09 85.66 47.47 85.34 46.87 85C43.39 82.91 43.06 81.24 45.45 78C48.13 74.4 50.82 70.81 53.45 67.19C54.927 65.2862 55.9549 63.0734 56.4571 60.7168C56.9592 58.3601 56.9226 55.9205 56.35 53.58C50.91 30.37 68 4.59 96.15 1.46C108.39 0.100001 120.49 0.460001 132.23 4.46" stroke="#004E56" stroke-width="1.5" stroke-linecap="round" stroke-linejoin="round"/>
<path id="Vector_4" d="M68.26 144.91C68.5395 139.803 70.2744 134.883 73.26 130.73C74.2189 129.264 75.531 128.062 77.0757 127.236C78.6204 126.409 80.3481 125.984 82.1 126C85.49 126 88.88 126.07 92.27 126.09C93.87 126.09 95.47 126.15 97.06 126.09C105.26 125.56 108.62 121.6 107.38 113.51C106.88 110.22 107.25 107.85 110.3 105.84C113 104.05 111.21 102.1 109.15 100.24C112.59 99.03 112.54 96.83 111.88 94.24C110.55 89.05 110.81 88.57 115.55 85.99C116.17 85.65 116.79 85.33 117.38 84.99C120.87 82.9 121.2 81.23 118.8 77.99C116.12 74.39 113.44 70.8 110.8 67.18C109.323 65.2762 108.295 63.0634 107.793 60.7068C107.291 58.3501 107.327 55.9105 107.9 53.57C113.34 30.37 96.22 4.59 68.11 1.46C55.87 0.100004 43.77 0.490004 32 4.46" stroke="#004E56" stroke-width="1.5" stroke-linecap="round" stroke-linejoin="round"/>
<path id="Vector_5" d="M73.8 120C72.5027 119.947 71.215 119.753 69.9599 119.42C68.6846 119.091 67.5056 118.464 66.5199 117.59C65.5444 116.677 64.8504 115.504 64.5199 114.21C64.1991 112.926 64.091 111.599 64.1999 110.28C64.3823 109.012 64.4725 107.732 64.4699 106.45C64.4151 105.221 63.8886 104.061 62.9999 103.21C62.5312 102.769 62.0298 102.365 61.4999 102C61.1886 101.789 60.9344 101.504 60.7599 101.171C60.5854 100.837 60.4961 100.466 60.4999 100.09C60.5979 99.3694 60.9197 98.6978 61.4199 98.17C61.8586 97.6698 62.326 97.1957 62.8199 96.75L62.9499 97.39C61.869 97.0908 60.9362 96.4037 60.3299 95.46C59.8666 94.4395 59.7816 93.2875 60.0899 92.21C60.3099 91.21 60.5999 90.21 60.7399 89.27C60.8655 88.844 60.8855 88.3938 60.7984 87.9583C60.7113 87.5228 60.5197 87.115 60.2399 86.77C59.52 86.1219 58.7161 85.5737 57.8499 85.14C56.9799 84.65 56.0599 84.14 55.1699 83.65C54.1907 83.1178 53.3879 82.3115 52.8599 81.33C52.6352 80.7634 52.5967 80.14 52.7499 79.55C52.9045 79.0174 53.1263 78.5066 53.4099 78.03C53.9799 77.11 54.6099 76.34 55.1999 75.51L56.9999 73.11L60.6199 68.22C61.8774 66.6908 62.8465 64.9458 63.4799 63.07C64.0834 61.1997 64.2678 59.2195 64.0199 57.27C63.9499 56.78 63.8699 56.27 63.7599 55.81L63.4799 54.3L63.1999 52.79L62.9999 51.26C62.9999 50.74 62.8899 50.26 62.8699 49.72V48.18C62.8533 47.155 62.8967 46.1299 62.9999 45.11C63.3371 41.0244 64.3509 37.0232 65.9999 33.27C69.3222 25.746 74.9174 19.4514 81.9999 15.27C75.159 19.6705 69.8028 26.0303 66.6299 33.52C65.0645 37.2231 64.1218 41.1595 63.8399 45.17C63.745 46.167 63.715 47.1691 63.7499 48.17V49.68C63.7499 50.18 63.8399 50.68 63.8899 51.17L64.0399 52.66L64.3299 54.14L64.6099 55.61C64.7299 56.12 64.8199 56.61 64.8899 57.15C65.17 59.2338 64.9891 61.3538 64.3599 63.36C63.6913 65.3403 62.6755 67.1858 61.3599 68.81C58.9899 72.07 56.4499 75.32 54.1699 78.56C53.8989 78.8998 53.7123 79.299 53.6254 79.7249C53.5385 80.1508 53.5537 80.5912 53.6699 81.01C54.1223 81.8178 54.7952 82.4803 55.6099 82.92C56.4499 83.44 57.3399 83.92 58.2299 84.4C59.1759 84.8806 60.0509 85.4897 60.8299 86.21C61.235 86.6492 61.4996 87.1994 61.5899 87.79C61.6511 88.34 61.6309 88.8959 61.5299 89.44C61.3699 90.44 61.0699 91.44 60.8599 92.44C60.5823 93.3255 60.6212 94.28 60.9699 95.14C61.4723 95.9174 62.2399 96.486 63.1299 96.74L63.7299 96.96L63.2599 97.37C62.8148 97.7782 62.394 98.2123 61.9999 98.67C61.5911 99.0787 61.3156 99.6016 61.2099 100.17C61.2074 100.442 61.2739 100.711 61.4033 100.95C61.5327 101.19 61.7208 101.393 61.9499 101.54C62.4952 101.908 63.0072 102.323 63.4799 102.78C64.4704 103.745 65.0475 105.058 65.0899 106.44C65.0767 107.747 64.9596 109.051 64.7399 110.34C64.6009 111.609 64.6685 112.892 64.9399 114.14C65.2077 115.383 65.8293 116.522 66.73 117.42C67.6571 118.297 68.7771 118.944 69.9999 119.31C71.2383 119.675 72.5123 119.906 73.8 120Z" fill="#EEFDFF"/>
</g>
<defs>
<clipPath id="clip0_0_652">
<rect width="164.26" height="197.89" fill="white"/>
</clipPath>
</defs>
</svg>
