<svg width="121" height="205" viewBox="0 0 121 205" fill="none" xmlns="http://www.w3.org/2000/svg">
<g id="Asset 4500" clip-path="url(#clip0_0_648)">
<path id="Vector" d="M57.9999 149.9C70.9999 151.71 91.3399 152.03 101.4 141.9C104.53 138.76 101.75 132.06 101.01 128.29C100.01 123.05 98.3099 104.29 97.6599 99C97.3499 96.38 96.7399 93.77 97.1799 91.1C98.0299 85.95 100.74 81.83 104.42 78.29C106.821 75.999 108.982 73.4693 110.87 70.74C117.97 60.43 121.67 49.22 119.55 36.59C118.52 29.5011 115.594 22.8222 111.08 17.26C105 10 96.8899 5.87 87.8799 3.43C79.7946 1.27472 71.3993 0.523809 63.0599 1.21C53.9321 1.77547 45.038 4.32833 36.9999 8.69C21.4999 17.24 16.2099 35 20.9999 48.28C21.6581 49.8638 21.9393 51.579 21.8213 53.2901C21.7033 55.0012 21.1893 56.6615 20.3199 58.14C17.8699 62.07 15.4199 66 12.9999 69.85C12.3857 70.7135 11.8629 71.6385 11.4399 72.61C10.5799 74.94 11.3199 76.52 13.6899 77.22C15.2895 77.7403 16.9502 78.0496 18.6299 78.14C19.7899 78.14 19.9699 78.67 19.6799 79.65C19.3099 80.92 18.9899 82.21 18.6799 83.49C18.5327 83.8162 18.4579 84.1704 18.4606 84.5282C18.4633 84.8861 18.5434 85.2391 18.6954 85.5631C18.8474 85.887 19.0677 86.1743 19.3412 86.405C19.6147 86.6358 19.9349 86.8047 20.2799 86.9C20.9677 87.1568 21.6068 87.5288 22.1699 88C22.7399 88.55 22.7399 89 22.0399 89.48C19.4099 91.48 19.6099 93.6 22.5299 95.16C23.4877 95.6444 24.2533 96.4388 24.7019 97.414C25.1504 98.3892 25.2555 99.4875 24.9999 100.53C24.8199 101.53 24.4899 102.4 24.2299 103.34C22.8699 108.15 25.2299 111.92 30.2299 112.5C34.6439 113.08 39.1312 112.357 43.1399 110.42C45.7399 109.14 46.8799 109.65 47.3799 112.53C48.1399 116.93 49.4699 134.85 50.0599 139.28C50.4799 142.45 50.2899 146.84 53.5499 148.58C54.947 149.271 56.452 149.717 57.9999 149.9Z" fill="#6DA4AA"/>
<path id="Vector_2" d="M70.5901 95.89C65.7301 92.7 60.5901 89.25 58.2201 83.96C56.0901 79.28 56.4201 73.86 57.3901 68.81C58.4735 63.145 60.2992 57.6476 62.8201 52.46C64.8801 48.2 67.4401 44.11 68.5901 39.46C70.4501 32.06 67.5101 24.33 59.3901 23.3C53.1901 22.51 48.8801 25.04 44.7601 29.3C40.6401 33.56 40.0001 40.13 41.0001 46.05C41.4239 48.9364 42.4427 51.7033 43.9919 54.1752C45.5412 56.6472 47.5872 58.7703 50.0001 60.41C63.5001 69.08 80.9401 60.01 89.0901 48.31C96.0901 38.31 95.6001 27.55 89.8201 17.11C86.3501 10.86 80.3301 6.24 73.6701 3.68C58.8901 -2 41.2401 1.1 27.6701 8.58C11.5601 17.46 6.07013 35.84 11.0001 49.66C11.6804 51.3023 11.9704 53.0801 11.8472 54.8535C11.724 56.6269 11.191 58.3475 10.2901 59.88C7.79013 64 5.25013 68 2.73013 72C2.09201 72.9085 1.54914 73.8803 1.11013 74.9C0.220128 77.3 1.00013 79 3.45013 79.67C5.10546 80.2268 6.82695 80.563 8.57013 80.67C9.78013 80.67 9.96013 81.22 9.66013 82.24C9.27013 83.55 8.95013 84.89 8.58013 86.24C8.09013 88.01 8.58013 89.07 10.2401 89.78C10.9721 90.0457 11.6498 90.4421 12.2401 90.95C12.8301 91.52 12.8401 91.95 12.1101 92.48C9.38013 94.48 9.59013 96.76 12.6101 98.37C13.6014 98.8705 14.3951 99.6904 14.8632 100.697C15.3313 101.704 15.4464 102.84 15.1901 103.92C15.0001 104.92 14.6601 105.92 14.3901 106.84C12.9801 111.84 14.1701 118.84 20.5901 120.9C25.6601 122.56 29.7401 120.8 33.9801 118.73C36.6901 117.41 37.8701 117.94 38.3801 120.92C38.8901 123.9 40.3801 144.25 41.3801 151.04" stroke="#004E56" stroke-width="1.5" stroke-linecap="round" stroke-linejoin="round"/>
<path id="Vector_3" d="M83.82 69.43C93.02 65.73 96.19 61.14 93.72 51.33C91.85 44 86.47 38.88 79.19 36.86C72.83 35.09 72.35 42.62 66.84 44.51C65.8685 44.8756 64.8172 44.9756 63.7943 44.7998C62.7713 44.6241 61.8137 44.1788 61.02 43.51C59.76 42.31 59.28 40.51 58.39 39.04C52.31 28.91 41.39 38.14 36.33 44.04C31.43 49.76 26.5 61.85 31.33 69.09C35.15 74.82 40.89 74.82 44.39 69.61C48.11 64.05 50.49 57.74 57.39 55.53C59.09 54.98 61.08 54.74 62.52 55.78C64.24 57.03 64.38 59.46 64.86 61.52C65.3575 63.7124 66.4151 65.7382 67.9294 67.3998C69.4437 69.0613 71.3631 70.3018 73.5 71C76 71.69 80 71 83.82 69.43Z" stroke="#004E56" stroke-width="1.5" stroke-linecap="round" stroke-linejoin="round"/>
</g>
<defs>
<clipPath id="clip0_0_648">
<rect width="120.13" height="204.75" fill="white"/>
</clipPath>
</defs>
</svg>
