<svg width="126" height="208" viewBox="0 0 126 208" fill="none" xmlns="http://www.w3.org/2000/svg">
<g id="Asset 1500" clip-path="url(#clip0_0_615)">
<path id="Vector" d="M53.5698 157.58C53.3052 157.408 53.0633 157.203 52.8498 156.97C52.1831 156.14 51.7146 155.169 51.4798 154.13C48.7998 145.05 48.5598 137.67 46.8398 128.34C46.1998 124.9 45.2798 121.82 44.4098 118.4C43.8898 116.4 42.9498 116.02 41.0998 116.27C36.1279 116.946 31.1175 117.3 26.0998 117.33C21.1798 117.33 18.3598 114.56 18.0998 109.6C17.8774 107.18 18.1184 104.74 18.8098 102.41C19.1676 101.548 19.2821 100.605 19.1411 99.6831C19 98.761 18.6088 97.8952 18.0098 97.18C17.3806 96.5429 17.0204 95.6883 17.0037 94.793C16.9869 93.8977 17.3149 93.0302 17.9198 92.37C18.5398 91.54 18.9198 90.91 17.6098 90.24C15.6998 89.24 15.4098 87.62 16.3698 85.73C16.53 85.4068 16.667 85.0726 16.7798 84.73C18.1798 80.73 18.1698 80.73 14.1298 79.36C8.93984 77.64 7.92984 74.58 11.5498 70.48C16.4598 64.93 23.2998 60.14 25.3098 52.74C26.8198 47.15 27.3098 41.29 28.5598 35.63C33.3498 13.84 49.0598 10.53 60.1098 9.37C68.3498 8.5 76.5298 8.76 84.9098 8.76C109.6 8.76 124.91 38.87 125.4 51.59C126 65.74 120.24 77.43 111.04 87.72C106.04 93.26 101.43 97.36 100.67 105.15C100.05 111.49 101.2 117.47 101.61 123.77C101.85 127.3 103.37 131.02 104.27 134.42C105.52 139.15 109.2 142.78 103.14 147.25C97.8298 151.17 88.6898 154.73 81.3698 156.51C74.0498 158.29 65.6798 158.56 58.1898 158.57C56.5865 158.694 54.9816 158.35 53.5698 157.58Z" fill="#6DA4AA"/>
<path id="Vector_2" d="M46.3299 159.87C44.0899 152.27 39.8899 129.01 38.6299 124.06C38.0599 121.85 37.0499 121.48 35.0399 121.75C29.6542 122.488 24.2258 122.872 18.7899 122.9C13.4799 122.9 10.4298 116.9 10.1498 111.57C9.9066 108.955 10.168 106.317 10.9198 103.8C11.3077 102.868 11.4326 101.848 11.281 100.85C11.1293 99.8519 10.707 98.9146 10.0598 98.14C9.39925 97.4509 9.02547 96.5364 9.01433 95.5819C9.00319 94.6273 9.35552 93.7043 9.99985 93C10.6798 92.1 11.0698 91.42 9.66985 90.69C7.60985 89.61 7.28985 87.87 8.32985 85.83C8.50042 85.4653 8.65065 85.0914 8.77985 84.71C10.2898 80.4 10.2698 80.37 5.90985 78.91C0.249849 77 -0.840151 73.7 3.07985 69.27C6.80985 65.05 10.7998 61.07 14.8098 57.15C17.3298 54.67 18.0998 50.94 18.6598 47.59C19.3298 43.59 20.9398 30.59 21.4098 28.15C27.3498 -2.41 59.4298 0.31 66.6898 1.26C136.85 10.43 101.6 50.59 72.3298 46.53C65.1198 45.53 56.3299 42.17 55.6099 33.74C54.2799 18.67 72.4598 20 77.2898 20.43C95.5998 22.16 100.44 38.09 99.2299 48C97.1199 65.23 73.4099 62 61.1099 71.07C52.3499 77.51 57.5198 88.07 67.9698 88.31" stroke="#004E56" stroke-width="1.5" stroke-linecap="round" stroke-linejoin="round"/>
<path id="Vector_3" d="M82.85 63.28C82.11 67.5 81.42 71.28 83.33 75.09C84.95 78.31 88.18 80.44 91.56 81.68" stroke="#6DA4AA" stroke-width="1.5" stroke-linecap="round" stroke-linejoin="round"/>
<path id="Vector_4" d="M54.8598 65.28C54.0101 65.1548 53.203 64.8268 52.5067 64.3237C51.8105 63.8207 51.2456 63.1574 50.8598 62.39C50.2378 61.008 50.1182 59.4521 50.5218 57.9914C50.9253 56.5306 51.8266 55.2567 53.0698 54.39C60.4498 50.27 68.4098 58.89 71.1698 65.07" stroke="#6DA4AA" stroke-width="1.5" stroke-linecap="round" stroke-linejoin="round"/>
<path id="Vector_5" d="M77.3901 32.06C77.0319 31.3622 76.5048 30.7652 75.8568 30.3233C75.2087 29.8814 74.4604 29.6087 73.6801 29.53C72.8973 29.4711 72.1141 29.6375 71.423 30.0097C70.7318 30.3818 70.1617 30.9441 69.7801 31.63C68.7801 33.63 69.7801 36.19 71.3901 37.74C73.0001 39.29 75.1901 40.13 77.1801 41.2C79.1701 42.27 81.18 43.74 81.84 45.89" stroke="#6DA4AA" stroke-width="1.5" stroke-linecap="round" stroke-linejoin="round"/>
<path id="Vector_6" d="M99.2501 63.25C99.8363 64.3531 100.063 65.6116 99.9001 66.85C99.8204 67.4703 99.5984 68.0638 99.2514 68.5842C98.9045 69.1046 98.4421 69.5378 97.9001 69.85C96.5601 70.56 94.9001 70.32 93.4101 70.34C91.3527 70.3052 89.3404 70.9444 87.6801 72.16C86.8635 72.7771 86.2124 73.5869 85.7849 74.5169C85.3574 75.447 85.1668 76.4684 85.2301 77.49" stroke="#6DA4AA" stroke-width="1.5" stroke-linecap="round" stroke-linejoin="round"/>
<path id="Vector_7" d="M46.73 44C46.8426 45.0022 47.2733 45.942 47.959 46.6817C48.6446 47.4213 49.5491 47.9219 50.54 48.11C51.67 48.41 55.54 49.02 54.73 53.39" stroke="#6DA4AA" stroke-width="1.5" stroke-linecap="round" stroke-linejoin="round"/>
<path id="Vector_8" d="M60.3202 85.7C59.8402 83.7 60.2402 80.59 61.7302 79.13C66.4002 74.56 73.0002 77.78 73.4802 81.47" stroke="#6DA4AA" stroke-width="1.5" stroke-linecap="round" stroke-linejoin="round"/>
<path id="Vector_9" d="M99.4199 46.44C99.9776 46.0839 100.619 45.8805 101.28 45.85C104.54 45.55 108.61 45.56 109.83 49.99C110.4 51.99 108.65 55.57 105.45 55.63" stroke="#6DA4AA" stroke-width="1.5" stroke-linecap="round" stroke-linejoin="round"/>
<path id="Vector_10" d="M70.0002 73.32C70.3204 72.3815 70.8363 71.5218 71.5139 70.7977C72.1914 70.0736 73.015 69.5018 73.9302 69.12C74.4502 68.9 74.9302 71.75 74.0502 74.38C73.382 76.1688 72.0794 77.6495 70.3902 78.54C69.9669 77.7445 69.7136 76.8696 69.6465 75.971C69.5793 75.0724 69.6998 74.1696 70.0002 73.32Z" fill="#004E56"/>
<path id="Vector_11" d="M102.65 69.86C103.588 70.1813 104.447 70.6964 105.172 71.3718C105.898 72.0472 106.473 72.8677 106.86 73.78C107.08 74.3 104.23 74.78 101.6 73.91C99.8104 73.2378 98.33 71.9318 97.4399 70.24C98.2336 69.8162 99.1073 69.5635 100.005 69.498C100.902 69.4326 101.803 69.5559 102.65 69.86Z" fill="#004E56"/>
<path id="Vector_12" d="M107.57 42C107.892 41.063 108.408 40.2041 109.083 39.4789C109.758 38.7537 110.578 38.1784 111.49 37.79C112.01 37.58 112.49 40.43 111.62 43.05C110.962 44.8321 109.674 46.3118 108 47.21C107.569 46.4195 107.308 45.5477 107.234 44.6504C107.16 43.7532 107.275 42.8504 107.57 42Z" fill="#004E56"/>
<path id="Vector_13" d="M70.6199 56.77C71.1169 55.9129 71.7902 55.1711 72.5952 54.5936C73.4003 54.0161 74.3188 53.6161 75.2899 53.42C75.8399 53.31 75.7699 56.2 74.3799 58.6C73.3807 60.2272 71.824 61.4355 69.9999 62C69.7289 61.1338 69.644 60.22 69.7508 59.3187C69.8577 58.4174 70.1538 57.5488 70.6199 56.77Z" fill="#004E56"/>
<path id="Vector_14" d="M46.61 48.64C47.5167 48.237 48.4978 48.0287 49.49 48.0287C50.4822 48.0287 51.4634 48.237 52.37 48.64C52.88 48.88 51.13 51.18 48.59 52.31C46.8184 53.0316 44.8435 53.0778 43.04 52.44C43.3384 51.5933 43.81 50.8181 44.4246 50.1638C45.0393 49.5096 45.7836 48.9906 46.61 48.64Z" fill="#004E56"/>
<path id="Vector_15" d="M54.1601 57.59C55.0639 57.1829 56.0438 56.9723 57.0351 56.9723C58.0263 56.9723 59.0063 57.1829 59.9101 57.59C60.4201 57.83 58.6701 60.13 56.1301 61.25C54.3597 61.9748 52.3848 62.0246 50.5801 61.39C50.8812 60.5433 51.3549 59.7683 51.9711 59.1141C52.5874 58.46 53.3328 57.941 54.1601 57.59Z" fill="#004E56"/>
<path id="Vector_16" d="M53.7998 75.25C54.6734 75.7221 55.4375 76.3731 56.0423 77.1606C56.6471 77.9481 57.0791 78.8543 57.3098 79.82C57.4398 80.36 54.5498 80.39 52.0998 79.08C50.4458 78.1212 49.198 76.5925 48.5898 74.78C49.4431 74.4913 50.3473 74.384 51.2445 74.465C52.1416 74.5459 53.012 74.8133 53.7998 75.25Z" fill="#004E56"/>
<path id="Vector_17" d="M67 31.59C67.8748 32.0579 68.6401 32.7065 69.2453 33.4926C69.8504 34.2788 70.2815 35.1846 70.51 36.15C70.64 36.69 67.74 36.72 65.3 35.41C63.6411 34.457 62.3915 32.9261 61.79 31.11C62.6436 30.8204 63.5485 30.7134 64.4461 30.7961C65.3436 30.8788 66.2138 31.1493 67 31.59Z" fill="#004E56"/>
<path id="Vector_18" d="M55.0001 20.45C55.9908 20.476 56.9649 20.7102 57.8591 21.1375C58.7533 21.5648 59.5475 22.1755 60.1901 22.93C60.5501 23.36 57.9801 24.69 55.1901 24.63C53.2817 24.5256 51.4779 23.7251 50.1201 22.38C50.7521 21.7332 51.5134 21.2271 52.3543 20.8945C53.1951 20.5619 54.0967 20.4105 55.0001 20.45Z" fill="#004E56"/>
<path id="Vector_19" d="M89.62 54.58C89.349 53.6262 89.2838 52.6257 89.4286 51.6447C89.5734 50.6638 89.9249 49.7248 90.46 48.89C90.77 48.42 92.8 50.48 93.55 53.15C94.0119 55.0055 93.7771 56.9661 92.89 58.66C92.0903 58.2459 91.3862 57.6689 90.823 56.9662C90.2598 56.2635 89.85 55.4507 89.62 54.58Z" fill="#004E56"/>
<path id="Vector_20" d="M87.09 20.06C87.1409 19.0697 87.3996 18.1012 87.8493 17.2174C88.2989 16.3336 88.9295 15.5542 89.7 14.93C90.14 14.58 91.41 17.18 91.27 19.93C91.1166 21.83 90.2737 23.6084 88.9 24.93C88.2766 24.2885 87.7937 23.5241 87.4821 22.6856C87.1704 21.8471 87.0369 20.9529 87.09 20.06Z" fill="#004E56"/>
<path id="Vector_21" d="M78.0002 36.26C78.904 35.8529 79.8839 35.6423 80.8752 35.6423C81.8664 35.6423 82.8464 35.8529 83.7502 36.26C84.2602 36.49 82.5102 38.79 79.9702 39.92C78.2023 40.6405 76.2322 40.6902 74.4302 40.06C74.7263 39.2121 75.1971 38.4358 75.812 37.7813C76.427 37.1267 77.1724 36.6085 78.0002 36.26Z" fill="#004E56"/>
</g>
<defs>
<clipPath id="clip0_0_615">
<rect width="125.45" height="207.6" fill="white"/>
</clipPath>
</defs>
</svg>
