<svg width="128" height="208" viewBox="0 0 128 208" fill="none" xmlns="http://www.w3.org/2000/svg">
<g id="Asset 3500" clip-path="url(#clip0_0_641)">
<path id="Vector" d="M62.2499 10.46C67.997 9.8757 73.7798 9.72194 79.5499 10C88.4099 10.42 96.8899 10.47 104.55 15.68C107.955 17.9673 110.496 21.3304 111.765 25.2316C113.034 29.1328 112.958 33.3469 111.55 37.2C109.95 41.34 106.96 44.57 106.17 49.05C105.34 53.77 106.17 58.6 106.12 63.36C106.12 65.12 107.83 66.29 109.12 67.52C111.63 69.91 113.98 72.46 116.44 74.89C117.5 75.89 118.69 76.43 118.44 78.08C117.94 81.76 114.12 81.93 111.94 84.08C111.221 84.7735 110.745 85.6803 110.583 86.6658C110.421 87.6513 110.581 88.6628 111.04 89.55C111.61 90.89 112.27 92.43 111.62 93.74C110.97 95.05 109.4 95.56 108.99 96.88C108.58 98.2 109.41 99.4 109.05 100.6C108.44 102.6 105.61 102.6 104.58 104.1C103.412 106.112 102.747 108.376 102.64 110.7C102.21 116.84 98.9699 119.59 93.1199 118.84C90.0299 118.45 87.0399 117.17 84.0299 116.21C78.2199 114.37 72.3199 113.76 72.5599 121.42C72.7499 127.84 72.4899 134.25 72.5599 140.67C72.6699 146.9 76.2299 155.6 66.7199 155.54C61.3299 155.54 35.9499 154.54 34.6099 150.46C34.4241 149.625 34.4796 148.755 34.7699 147.95L40.5299 125.84C41.1299 123.55 43.3199 119.44 41.0299 117.53C39.0299 115.89 36.5799 117.7 34.4999 118.24C31.949 118.821 29.3352 119.08 26.7199 119.01C9.2399 119.07 4.0199 111.9 0.259897 95.01C-1.2201 88.34 2.3799 82.71 7.6999 78.73C9.6999 77.2 12.1899 76.37 14.3499 75.07C16.9099 73.53 17.4099 71.98 17.5499 69C17.7899 63.79 15.5499 58.72 15.0499 53.68C14.6306 48.8755 15.2303 44.0367 16.8099 39.48C20.1021 29.9595 26.9902 22.1059 35.9999 17.6C43.9099 13.64 53.0599 11.43 62.2499 10.46Z" fill="#6DA4AA"/>
<path id="Vector_2" d="M79.5802 153.74C78.3102 144.94 77.6702 135.84 77.4502 132.19C76.7802 120.92 79.6202 119.04 90.2502 122.41C93.5502 123.41 94.9102 124.41 98.3102 124.84C104.72 125.66 108.31 122.65 108.75 115.91C108.94 113.04 110.35 107 113.1 105.33C113.98 104.79 114.97 104.44 115.86 103.91C116.144 103.764 116.385 103.547 116.56 103.28C116.693 103.02 116.759 102.732 116.75 102.44C116.81 100.86 116.31 99.13 117.14 97.77C117.97 96.41 119.62 95.96 120.14 94.58C120.29 94.0131 120.29 93.4169 120.14 92.85C119.84 91.16 118.63 89.85 118.61 88.13C118.547 86.9219 118.923 85.7317 119.67 84.78C120.85 83.32 122.56 82.99 124 81.98C125.24 81.1 126.85 79.53 127.16 77.98C127.47 76.43 126.1 75.37 125.16 74.42C122.45 71.75 119.87 68.95 117.16 66.32C115.74 64.97 113.83 63.69 113.87 61.76C113.97 55.81 111.51 46.5 115.87 41.57C117.845 39.4289 119.356 36.9018 120.306 34.148C121.256 31.3943 121.625 28.4736 121.39 25.57C121.171 22.3632 120.23 19.2472 118.639 16.4544C117.048 13.6616 114.847 11.2639 112.2 9.44C92.2002 -4.12 57.2902 -2.33 42.6702 18.44C37.4402 25.89 35.4802 35.31 35.9902 44.44C36.4202 52.04 38.8202 60.03 44.7402 64.82C51.9802 70.68 62.8802 70.16 71.0902 65.76C76.307 63.085 80.4708 58.731 82.9102 53.4C86.3502 45.3 86.0402 34.4 77.4302 29.5C67.5402 23.88 56.0002 33.27 54.5602 43C52.2202 58.53 63.2102 73.55 61.4402 89.11C60.8502 94.28 58.4402 99.05 55.8002 103.54" stroke="#004E56" stroke-width="1.5" stroke-linecap="round" stroke-linejoin="round"/>
<path id="Vector_3" d="M71.6999 79.78C73.1068 79.3787 74.5828 79.28 76.0306 79.4902C77.4784 79.7005 78.8653 80.2151 80.0999 81C80.7999 81.45 77.7599 84.45 73.8299 85.57C71.093 86.263 68.1969 85.9285 65.6899 84.63C66.2983 83.4473 67.1472 82.4049 68.1822 81.5697C69.2172 80.7344 70.4154 80.1248 71.6999 79.78Z" stroke="#004E56" stroke-width="1.5" stroke-linecap="round" stroke-linejoin="round"/>
<path id="Vector_4" d="M71.7298 93C73.1794 93.1965 74.5711 93.6972 75.8137 94.4693C77.0562 95.2414 78.1215 96.2674 78.9398 97.48C79.3998 98.16 75.4198 99.71 71.3698 99.16C68.5826 98.7054 66.0595 97.2427 64.2798 95.05C65.3096 94.2071 66.5046 93.5892 67.7877 93.2361C69.0708 92.883 70.4137 92.8026 71.7298 93Z" stroke="#004E56" stroke-width="1.5" stroke-linecap="round" stroke-linejoin="round"/>
<path id="Vector_5" d="M53.1001 79.29C51.9242 78.4202 50.578 77.8085 49.1494 77.4949C47.7208 77.1813 46.2422 77.1728 44.8101 77.47C44.0001 77.64 45.8101 81.47 49.0601 83.96C51.3687 85.5871 54.1931 86.3128 57.0001 86C56.8584 84.6702 56.4378 83.3853 55.7657 82.2291C55.0937 81.0728 54.1854 80.0714 53.1001 79.29Z" stroke="#004E56" stroke-width="1.5" stroke-linecap="round" stroke-linejoin="round"/>
<path id="Vector_6" d="M48.3802 91.69C46.9477 91.352 45.4597 91.3226 44.0149 91.6036C42.5701 91.8846 41.2016 92.4697 40.0002 93.32C39.3302 93.8 42.5102 96.65 46.5002 97.58C49.2636 98.1338 52.1341 97.6571 54.5702 96.24C53.9121 95.0924 53.0216 94.0949 51.9557 93.3114C50.8897 92.5279 49.6719 91.9756 48.3802 91.69Z" stroke="#004E56" stroke-width="1.5" stroke-linecap="round" stroke-linejoin="round"/>
</g>
<defs>
<clipPath id="clip0_0_641">
<rect width="127.95" height="207.42" fill="white"/>
</clipPath>
</defs>
</svg>
