<svg width="160" height="198" viewBox="0 0 160 198" fill="none" xmlns="http://www.w3.org/2000/svg">
<g clip-path="url(#clip0_0_658)">
<path d="M148.24 74.85C147.632 73.9794 146.939 73.1721 146.17 72.44C143.02 69.1 139.85 65.76 136.74 62.44C135.599 61.1609 134.769 59.6349 134.316 57.9814C133.863 56.328 133.8 54.5922 134.13 52.91C136.03 39.91 128.64 24.81 113.97 18.49C109.912 14.3772 105.176 10.9944 99.97 8.49C92.4464 4.76599 84.3381 2.36429 76 1.39C66.9449 0.163602 57.7312 0.924578 49 3.62C32.13 9 23.47 25.31 25.5 39.3C25.8349 40.9813 25.7743 42.7175 25.3231 44.3714C24.8719 46.0253 24.0423 47.5517 22.9 48.83C19.78 52.21 16.62 55.54 13.47 58.89C12.6957 59.6161 11.9987 60.4204 11.39 61.29C10.1 63.4 10.51 65.1 12.7 66.29C14.1655 67.1132 15.732 67.7418 17.36 68.16C18.5 68.42 18.58 68.94 18.1 69.85C17.49 71.02 16.92 72.22 16.33 73.4C16.1195 73.6913 15.9749 74.0249 15.9061 74.3777C15.8373 74.7305 15.846 75.094 15.9316 75.443C16.0172 75.7921 16.1777 76.1184 16.4018 76.3993C16.626 76.6803 16.9086 76.9091 17.23 77.07C17.8747 77.458 18.4438 77.9594 18.91 78.55C19.36 79.19 19.28 79.55 18.5 79.97C15.5 81.36 15.31 83.54 17.86 85.63C18.701 86.293 19.2944 87.2197 19.5447 88.2609C19.795 89.3021 19.6877 90.3972 19.24 91.37C18.88 92.26 18.38 93.1 17.94 93.97C15.66 98.42 17.27 102.59 22 104.13C26.2165 105.562 30.7598 105.729 35.07 104.61C37.88 103.88 38.89 104.61 38.82 107.52C38.7 111.98 38.65 116.46 38.36 120.92C38.15 124.12 37.1 128.39 39.96 130.73C41.1948 131.685 42.5853 132.419 44.07 132.9C50.93 135.3 60.07 137.69 68.96 137.98C68.79 141.52 68.9 145.45 71.45 147.15C76.36 150.44 82.65 151.62 89.22 151.57C98.5 151.51 108.33 148.98 115.57 146.45C117.055 145.968 118.445 145.234 119.68 144.28C122.53 141.94 121.48 137.67 121.28 134.48C120.99 130.02 120.94 125.54 120.82 121.07C120.74 118.15 121.76 117.43 124.57 118.17C128.878 119.28 133.417 119.11 137.63 117.68C142.37 116.15 143.97 111.98 141.7 107.52C141.26 106.66 140.76 105.82 140.39 104.92C139.942 103.948 139.836 102.853 140.088 101.813C140.341 100.773 140.937 99.8489 141.78 99.19C144.33 97.09 144.1 94.92 141.14 93.53C140.35 93.16 140.28 92.75 140.73 92.1C141.193 91.51 141.759 91.0086 142.4 90.62C142.721 90.4598 143.003 90.232 143.227 89.9523C143.451 89.6726 143.612 89.3476 143.699 88.9997C143.785 88.6519 143.795 88.2894 143.728 87.9372C143.661 87.5851 143.518 87.2517 143.31 86.96C142.71 85.78 142.15 84.58 141.53 83.4C141.06 82.5 141.14 81.97 142.27 81.72C143.9 81.3024 145.467 80.6702 146.93 79.84C149.13 78.66 149.54 77 148.24 74.85ZM88.13 46.7C87.9545 46.8151 87.8128 46.9749 87.7197 47.163C87.6265 47.3511 87.5852 47.5606 87.6 47.77L89.17 63.52C89.1872 63.682 89.1695 63.8459 89.1181 64.0005C89.0667 64.1551 88.9827 64.2969 88.8718 64.4163C88.7609 64.5357 88.6257 64.6299 88.4753 64.6927C88.325 64.7554 88.1629 64.7852 88 64.78H79.44C79.2796 64.7809 79.1209 64.7479 78.9741 64.6833C78.8274 64.6186 78.6959 64.5238 78.5883 64.4049C78.4807 64.2859 78.3994 64.1457 78.3498 63.9932C78.3001 63.8407 78.2831 63.6795 78.3 63.52L79.87 47.77C79.8848 47.5606 79.8435 47.3511 79.7503 47.163C79.6572 46.9749 79.5155 46.8151 79.34 46.7C77.9597 45.7604 76.917 44.4031 76.3646 42.8273C75.8123 41.2516 75.7796 39.5403 76.2712 37.9446C76.7628 36.3488 77.7529 34.9527 79.0962 33.9609C80.4395 32.9691 82.0653 32.434 83.735 32.434C85.4048 32.434 87.0305 32.9691 88.3738 33.9609C89.7171 34.9527 90.7072 36.3488 91.1988 37.9446C91.6904 39.5403 91.6577 41.2516 91.1054 42.8273C90.5531 44.4031 89.5103 45.7604 88.13 46.7Z" fill="#6DA4AA"/>
<path d="M69.3002 110.69C69.7266 109.688 70.2995 108.754 71.0002 107.92C80.4702 95 89.7002 83.13 95.7602 68.08C101.28 54.34 104.42 38.74 99.8202 24.27C97.6502 17.46 92.6602 11.76 86.6202 7.94C73.2502 -0.529999 55.3302 -0.939999 40.5602 3.73C23.0002 9.28 14.0002 26.22 16.1502 40.74C16.4945 42.4858 16.4289 44.2876 15.9586 46.0038C15.4884 47.7199 14.6263 49.3035 13.4402 50.63C10.2102 54.13 6.93023 57.63 3.66023 61.06C2.8624 61.8163 2.14216 62.6504 1.51023 63.55C0.17023 65.74 0.59023 67.55 2.87023 68.7C4.38973 69.5525 6.01323 70.2045 7.70023 70.64C8.88023 70.9 8.96023 71.45 8.47023 72.39C7.83023 73.6 7.25023 74.85 6.63023 76.08C5.81023 77.71 6.06023 78.84 7.57023 79.87C8.23393 80.2763 8.81978 80.7978 9.30023 81.41C9.77023 82.08 9.70023 82.51 8.88023 82.89C5.80023 84.33 5.57023 86.59 8.22023 88.76C9.09398 89.4457 9.71059 90.4063 9.97014 91.4863C10.2297 92.5662 10.117 93.7021 9.65023 94.71C9.28023 95.64 8.76023 96.51 8.30023 97.41C5.94023 102.03 7.60023 107.56 12.5102 109.15C16.8833 110.641 21.5975 110.819 26.0702 109.66C28.9802 108.89 30.0702 109.66 29.9602 112.66C29.8502 115.66 29.5202 122.58 29.1202 129.43" stroke="#004E56" stroke-width="1.5" stroke-linecap="round" stroke-linejoin="round"/>
<path d="M130.51 143C130.12 136.15 129.76 129.26 129.68 126.23C129.6 123.2 130.68 122.46 133.56 123.23C138.032 124.387 142.745 124.214 147.12 122.73C152.03 121.14 153.69 115.6 151.34 110.98C150.88 110.09 150.34 109.21 149.98 108.28C149.517 107.272 149.407 106.138 149.668 105.06C149.93 103.982 150.547 103.024 151.42 102.34C154.07 100.16 153.83 97.91 150.76 96.46C149.94 96.08 149.86 95.66 150.33 94.99C150.811 94.3749 151.401 93.853 152.07 93.45C153.57 92.45 153.83 91.29 153.01 89.65C152.39 88.42 151.8 87.18 151.17 85.96C150.67 85.02 150.75 84.48 151.93 84.21C153.622 83.779 155.249 83.1267 156.77 82.27C159.04 81.08 159.47 79.27 158.12 77.13C157.505 76.2203 156.794 75.3789 156 74.62C152.74 71.14 149.45 67.69 146.22 64.18C143.62 61.37 142.99 57.9 143.52 54.29C145.63 39.78 136.65 22.83 119.11 17.29C107.18 13.52 92.1099 11.71 80.4699 17.46C68.8299 23.21 64.0999 35.88 63.6399 48C63.4042 54.4071 64.2563 60.8077 66.1599 66.93C71.7399 84.93 86.4099 100.61 101.49 111.39" stroke="#004E56" stroke-width="1.5" stroke-linecap="round" stroke-linejoin="round"/>
</g>
<defs>
<clipPath id="clip0_0_658">
<rect width="159.64" height="197.89" fill="white"/>
</clipPath>
</defs>
</svg>
