<svg width="125" height="198" viewBox="0 0 125 198" fill="none" xmlns="http://www.w3.org/2000/svg">
<g id="Asset 2500" clip-path="url(#clip0_0_637)">
<path id="Vector" d="M71.69 3.62H71.79C64.0975 3.05122 56.3667 3.9332 49 6.22C32.13 11.57 23.46 27.91 25.5 41.9C25.8383 43.582 25.7785 45.3198 25.3253 46.9745C24.8721 48.6293 24.0381 50.1551 22.89 51.43C19.78 54.81 16.61 58.14 13.46 61.49C12.6916 62.2189 11.9982 63.0229 11.39 63.89C10.09 66 10.51 67.7 12.7 68.89C14.1655 69.7132 15.732 70.3418 17.36 70.76C18.49 71.02 18.58 71.54 18.1 72.45C17.48 73.62 16.92 74.82 16.32 76C15.53 77.58 15.78 78.67 17.23 79.66C17.8717 80.0523 18.4374 80.5571 18.9 81.15C19.36 81.79 19.28 82.15 18.49 82.57C15.49 83.96 15.3 86.14 17.85 88.23C18.6941 88.8905 19.2906 89.8166 19.5428 90.8584C19.7951 91.9001 19.6884 92.9965 19.24 93.97C18.88 94.86 18.37 95.7 17.93 96.57C15.66 101.02 17.26 105.19 22 106.73C26.2165 108.162 30.7598 108.329 35.07 107.21C37.87 106.47 38.89 107.21 38.81 110.11C38.7 114.58 38.64 119.11 38.36 123.52C38.15 126.72 37.1 130.99 39.96 133.33C41.1906 134.283 42.5781 135.014 44.06 135.49C49.526 137.426 55.1554 138.865 60.88 139.79C60.88 139.26 60.98 138.74 61.01 138.25C61.3 133.79 61.36 111.98 61.47 107.51C61.55 104.6 60.53 103.87 57.73 104.61C53.4183 105.721 48.8764 105.55 44.66 104.12C39.92 102.59 38.32 98.42 40.59 93.97C41.03 93.1 41.53 92.26 41.9 91.36C42.3477 90.388 42.454 89.2932 42.2017 88.2532C41.9494 87.2132 41.3533 86.2889 40.51 85.63C37.96 83.53 38.19 81.36 41.15 79.97C41.94 79.6 42.02 79.19 41.56 78.54C41.0998 77.931 40.5342 77.4095 39.89 77C38.44 76 38.19 74.92 38.98 73.34C39.58 72.16 40.14 70.96 40.76 69.78C41.24 68.88 41.15 68.35 40.02 68.1C38.3916 67.6783 36.8251 67.0463 35.36 66.22C33.17 65.08 32.75 63.37 34.05 61.27C34.6582 60.4029 35.3516 59.5989 36.12 58.87C39.27 55.52 42.44 52.19 45.55 48.81C46.6981 47.5351 47.5321 46.0093 47.9853 44.3545C48.4385 42.6998 48.4983 40.962 48.16 39.28C46.12 25.3 54.78 9 71.69 3.62ZM75.38 19.62C73.944 21.3652 73.1589 23.555 73.1589 25.815C73.1589 28.075 73.944 30.2648 75.38 32.01C79.89 37.37 84.98 34.67 90.67 37.67C93.25 39.02 95.91 40.58 97.67 42.96C99.08 44.86 99.09 47.24 100.12 49.28C101.315 51.3296 103.234 52.8567 105.5 53.56C106.804 53.9626 108.182 54.0635 109.53 53.8551C110.879 53.6467 112.162 53.1344 113.283 52.357C114.405 51.5796 115.335 50.5574 116.003 49.3677C116.671 48.1781 117.06 46.8521 117.14 45.49C117.32 37.74 110.06 35.84 108.19 34.59C105.9 33.06 103.36 31.88 101.25 30.1C98.25 27.57 96.35 24.03 93.8 21.1C91.464 18.2964 88.186 16.4405 84.58 15.88C82.8598 15.683 81.1176 15.9181 79.5111 16.5642C77.9047 17.2103 76.4848 18.2468 75.38 19.58V19.62Z" fill="#6DA4AA"/>
<path id="Vector_2" d="M65.2102 3.17C50.8302 2.87 45.7902 4.68 40.5602 6.33C23.0002 11.88 14.0002 28.83 16.1502 43.34C16.4945 45.0858 16.4289 46.8876 15.9586 48.6038C15.4884 50.3199 14.6263 51.9035 13.4402 53.23C10.2102 56.74 6.93023 60.23 3.66023 63.66C2.86227 64.4198 2.14205 65.2573 1.51023 66.16C0.17023 68.34 0.59023 70.16 2.87023 71.3C4.38775 72.1566 6.0118 72.8089 7.70023 73.24C8.88023 73.51 8.96023 74.05 8.47023 74.99C7.83023 76.21 7.25023 77.45 6.63023 78.68C5.81023 80.31 6.06023 81.45 7.57023 82.48C8.23662 82.8744 8.82337 83.3899 9.30023 84C9.77023 84.67 9.70023 85.09 8.88023 85.47C5.80023 86.92 5.57023 89.17 8.22023 91.35C9.09317 92.034 9.70941 92.9929 9.96898 94.0711C10.2285 95.1494 10.1162 96.2836 9.65023 97.29C9.28023 98.22 8.76023 99.09 8.30023 99.99C5.94023 104.61 7.60023 108.94 12.5102 110.53C16.8851 112.014 21.598 112.187 26.0702 111.03C28.9802 110.27 30.0702 111.03 29.9602 114.03C29.8502 117.03 29.5202 123.95 29.1202 130.8" stroke="#004E56" stroke-width="1.5" stroke-linecap="round" stroke-linejoin="round"/>
<path id="Vector_3" d="M106.61 21.32C102.29 15.18 95.6899 10.43 88.2499 9.32C80.8099 8.21 72.6799 11.32 68.5699 17.57C64.4599 23.82 65.2899 33.25 71.0699 38C75.7899 41.92 82.5099 42.34 87.7499 45.52C96.5899 50.89 98.2299 64.74 111.33 60.34C123.99 56.08 125.84 34.8 122.48 24.23C120.31 17.42 115.32 11.72 109.28 7.9C95.9099 -0.530001 77.9999 -0.940001 63.2199 3.73C45.6799 9.28 36.6899 26.22 38.8099 40.73C39.1541 42.4758 39.0885 44.2776 38.6183 45.9938C38.148 47.7099 37.286 49.2935 36.0999 50.62C32.8699 54.12 29.5899 57.62 26.3199 61.05C25.5221 61.8063 24.8018 62.6405 24.1699 63.54C22.8299 65.73 23.2499 67.54 25.5299 68.69C27.0494 69.5425 28.6729 70.1945 30.3599 70.63C31.5399 70.89 31.6199 71.44 31.1299 72.38C30.4899 73.59 29.9099 74.84 29.2899 76.07C28.4699 77.7 28.7199 78.83 30.2299 79.86C30.9087 80.2654 31.5084 80.7906 31.9999 81.41C32.4699 82.08 32.3999 82.51 31.5799 82.89C28.4999 84.33 28.2699 86.59 30.9199 88.76C31.7936 89.4457 32.4103 90.4063 32.6698 91.4863C32.9294 92.5662 32.8166 93.7021 32.3499 94.71C31.9699 95.64 31.4499 96.51 30.9999 97.41C28.6399 102.03 30.2999 106.41 35.2099 107.95C39.5848 109.434 44.2976 109.607 48.7699 108.45C51.6799 107.69 52.7699 108.45 52.6599 111.45C52.5499 114.45 52.2199 132.02 51.8199 138.87" stroke="#004E56" stroke-width="1.5" stroke-linecap="round" stroke-linejoin="round"/>
</g>
<defs>
<clipPath id="clip0_0_637">
<rect width="124.7" height="197.89" fill="white"/>
</clipPath>
</defs>
</svg>
