<svg width="151" height="41" viewBox="0 0 151 41" fill="none" xmlns="http://www.w3.org/2000/svg">
<path d="M8.81819 17.0882C6.06999 17.0882 4.03455 16.3093 2.71188 14.7515C2.2416 14.193 1.8595 13.4508 1.56557 12.525C1.27165 11.5991 1.12468 10.4748 1.12468 9.15218C1.12468 7.82951 1.33778 6.64646 1.76397 5.60302C2.20486 4.54489 2.80006 3.72924 3.54957 3.15609C5.00451 2.08326 6.76071 1.54684 8.81819 1.54684C9.40605 1.54684 9.9792 1.59828 10.5377 1.70116C11.0961 1.78933 11.515 1.88486 11.7942 1.98773L12.191 2.14204L12.1249 2.36249C11.1255 1.96569 10.0233 1.76729 8.81819 1.76729C7.26039 1.76729 5.95977 2.27431 4.91633 3.28835C4.12273 4.03787 3.56427 5.14009 3.24095 6.59502C3.0499 7.41801 2.95437 8.42471 2.95437 9.61511C2.95437 10.8055 3.12338 11.9077 3.46139 12.9218C3.79941 13.9211 4.18151 14.6633 4.60771 15.1483C5.04859 15.6332 5.57766 16.0227 6.19491 16.3166C6.81215 16.5959 7.30448 16.7575 7.67188 16.8016C8.03929 16.8457 8.48018 16.8677 8.99455 16.8677C9.52362 16.8677 10.1188 16.8163 10.7802 16.7134C11.4415 16.6105 11.9412 16.515 12.2792 16.4268L12.7862 16.2725L12.8523 16.493C11.7354 16.8898 10.3907 17.0882 8.81819 17.0882ZM16.8245 17C15.5312 17 14.7155 16.662 14.3775 15.986C14.304 15.839 14.2673 15.7067 14.2673 15.5892V0.48871H15.8104V15.4348C15.8104 15.861 15.8912 16.1917 16.0529 16.4268C16.2293 16.6473 16.4056 16.7649 16.582 16.7796L16.8245 16.8236H17.5078V17H16.8245ZM20.503 17C19.9004 17 19.4375 16.8677 19.1142 16.6032C18.8055 16.3387 18.6439 16.0741 18.6292 15.8096L18.6071 15.4348V5.97778H20.1502V15.4348C20.1502 15.861 20.2311 16.1917 20.3927 16.4268C20.5691 16.6473 20.7381 16.7649 20.8998 16.7796L21.1643 16.8236H21.8477V17H20.503ZM18.7394 3.5088C18.563 3.33244 18.4749 3.112 18.4749 2.84747C18.4749 2.58293 18.563 2.36249 18.7394 2.18613C18.9158 1.99508 19.1362 1.89955 19.4007 1.89955C19.6653 1.89955 19.8857 1.99508 20.0621 2.18613C20.2531 2.36249 20.3486 2.58293 20.3486 2.84747C20.3486 3.112 20.2531 3.33244 20.0621 3.5088C19.8857 3.68515 19.6653 3.77333 19.4007 3.77333C19.1362 3.77333 18.9158 3.68515 18.7394 3.5088ZM31.8478 17C31.2452 17 30.7823 16.8677 30.459 16.6032C30.1503 16.3387 29.9887 16.0741 29.974 15.8096L29.9519 15.4348V8.51289C29.9519 7.35188 29.6507 6.60972 29.0481 6.2864C28.7395 6.13944 28.3574 6.06595 27.9018 6.06595C26.9612 6.06595 26.1162 6.44071 25.3667 7.19022C24.6172 7.92504 24.2424 8.58637 24.2424 9.17422V17H22.6993V5.97778H24.2424V8.49084C24.4923 7.8589 24.9552 7.27105 25.6312 6.72729C26.3072 6.16883 27.0494 5.8896 27.8577 5.8896C28.666 5.8896 29.32 5.97043 29.8197 6.13209C30.334 6.27905 30.7088 6.49215 30.9439 6.77138C31.3113 7.22696 31.495 7.81481 31.495 8.53493V15.4348C31.495 15.861 31.5759 16.1917 31.7375 16.4268C31.9139 16.6473 32.0902 16.7649 32.2666 16.7796L32.5091 16.8236H33.1925V17H31.8478ZM36.0663 17C35.4638 17 35.0009 16.8677 34.6775 16.6032C34.3689 16.3387 34.2073 16.0741 34.1926 15.8096L34.1705 15.4348V5.97778H35.7136V15.4348C35.7136 15.861 35.7945 16.1917 35.9561 16.4268C36.1325 16.6473 36.3015 16.7649 36.4631 16.7796L36.7277 16.8236H37.411V17H36.0663ZM34.3028 3.5088C34.1264 3.33244 34.0382 3.112 34.0382 2.84747C34.0382 2.58293 34.1264 2.36249 34.3028 2.18613C34.4791 1.99508 34.6996 1.89955 34.9641 1.89955C35.2286 1.89955 35.4491 1.99508 35.6254 2.18613C35.8165 2.36249 35.912 2.58293 35.912 2.84747C35.912 3.112 35.8165 3.33244 35.6254 3.5088C35.4491 3.68515 35.2286 3.77333 34.9641 3.77333C34.6996 3.77333 34.4791 3.68515 34.3028 3.5088ZM38.2627 11.8857C38.2627 9.97517 38.7256 8.49819 39.6515 7.45475C40.5773 6.41132 41.9662 5.8896 43.8179 5.8896C44.685 5.8896 45.5594 6.11004 46.4412 6.55093V5.97778H47.9843V22.5111H46.4412V15.0821C46.1619 15.5965 45.699 16.0521 45.0524 16.4489C44.4057 16.8457 43.6415 17.0441 42.7598 17.0441C39.7617 16.9706 38.2627 15.2511 38.2627 11.8857ZM42.7818 16.8677C43.7664 16.8677 44.6115 16.6032 45.3169 16.0741C46.0223 15.5451 46.3971 15.0233 46.4412 14.509V6.74933C45.3977 6.29375 44.5013 6.06595 43.7517 6.06595C42.4438 6.06595 41.4591 6.58033 40.7978 7.60907C40.1365 8.62311 39.8058 10.0487 39.8058 11.8857C39.8058 15.2071 40.7978 16.8677 42.7818 16.8677ZM51.2472 14.4649C51.2472 15.6259 51.5558 16.3681 52.1731 16.6914C52.467 16.8383 52.8418 16.9118 53.2973 16.9118C54.2232 16.9118 55.0462 16.5591 55.7663 15.8537C56.5011 15.1483 56.8979 14.4943 56.9567 13.8917V5.97778H58.4998V15.4348C58.4998 15.861 58.5807 16.1917 58.7423 16.4268C58.9187 16.6473 59.095 16.7649 59.2714 16.7796L59.5139 16.8236H60.1972V17H58.8525C58.25 17 57.7871 16.8677 57.4637 16.6032C57.1551 16.3387 56.9935 16.0741 56.9788 15.8096L56.9567 15.4348V14.4869C56.6922 15.1189 56.2219 15.7141 55.5459 16.2725C54.8698 16.8163 54.1277 17.0882 53.3194 17.0882C52.5258 17.0882 51.8718 17.0147 51.3574 16.8677C50.8578 16.7061 50.4977 16.4856 50.2772 16.2064C49.8951 15.7508 49.7041 15.163 49.7041 14.4428V5.97778H51.2472V14.4649ZM62.3216 11.6212C62.3216 13.4435 62.6376 14.7809 63.2695 15.6332C63.9162 16.4856 64.7612 16.9118 65.8046 16.9118C67.2743 16.9118 68.5822 16.6914 69.7285 16.2505L69.7947 16.4048C68.619 16.8604 67.289 17.0882 65.8046 17.0882C64.335 17.0882 63.1373 16.6473 62.2114 15.7655C61.2855 14.8837 60.8226 13.5243 60.8226 11.6873C60.8226 9.85025 61.3076 8.42471 62.2775 7.41067C63.2475 6.39662 64.482 5.8896 65.981 5.8896C67.1861 5.8896 68.2001 6.24966 69.0231 6.96978C69.8461 7.6899 70.2576 8.75538 70.2576 10.1662C70.2576 10.2397 70.2576 10.3132 70.2576 10.3867H62.3877C62.3437 10.7835 62.3216 11.195 62.3216 11.6212ZM68.7586 10.2103C68.7439 8.79947 68.472 7.75603 67.9429 7.08C67.4139 6.40397 66.7305 6.06595 65.8928 6.06595C65.0551 6.06595 64.3056 6.43336 63.6443 7.16818C62.9976 7.90299 62.5861 8.91704 62.4098 10.2103H68.7586ZM79.491 17H77.6613V1.56889H79.491V8.6672H86.6554V1.56889H88.4851V17H86.6554V8.88764H79.491V17ZM92.6916 20.946C92.2213 21.9894 91.6408 22.5111 90.9501 22.5111C90.6415 22.5111 90.2814 22.4597 89.8699 22.3568V22.1804C90.208 22.2686 90.5092 22.3127 90.7738 22.3127C91.5233 22.3127 92.0964 21.8571 92.4932 20.946L94.345 17H94.3229L90.2226 5.97778H91.7658L95.1826 15.1703L98.5554 8.18222C98.7318 7.8736 98.82 7.50619 98.82 7.08C98.82 6.65381 98.7024 6.33049 98.4673 6.11004L98.5995 5.97778C98.6583 6.00717 98.7318 6.09535 98.82 6.24231C98.9229 6.38927 98.9816 6.52154 98.9963 6.63911C99.0257 6.75668 99.0404 6.8669 99.0404 6.96978C99.0404 7.36658 98.9522 7.77073 98.7759 8.18222L94.5434 17L92.6916 20.946ZM100.006 5.97778H101.549V8.71129C101.799 8.03526 102.262 7.39597 102.938 6.79342C103.614 6.19087 104.378 5.8896 105.23 5.8896C108.214 5.8896 109.705 7.63846 109.705 11.1362C109.705 15.1042 107.78 17.0882 103.93 17.0882C103.239 17.0882 102.445 16.9265 101.549 16.6032V22.5111H100.006V5.97778ZM105.208 6.06595C104.297 6.06595 103.474 6.46275 102.739 7.25635C102.005 8.03526 101.608 8.74068 101.549 9.37262V16.4048C102.445 16.7428 103.232 16.9118 103.908 16.9118C106.744 16.9118 108.162 14.9793 108.162 11.1141C108.162 7.74868 107.178 6.06595 105.208 6.06595ZM120.139 17C119.536 17 119.073 16.8677 118.75 16.6032C118.441 16.3387 118.279 16.0741 118.265 15.8096L118.243 15.4348V8.51289C118.243 7.35188 117.941 6.60972 117.339 6.2864C117.03 6.13944 116.648 6.06595 116.193 6.06595C115.252 6.06595 114.407 6.44071 113.657 7.19022C112.908 7.92504 112.533 8.58637 112.533 9.17422V17H110.99V5.97778H112.533V8.49084C112.783 7.8589 113.246 7.27105 113.922 6.72729C114.598 6.16883 115.34 5.8896 116.148 5.8896C116.957 5.8896 117.611 5.97043 118.11 6.13209C118.625 6.27905 119 6.49215 119.235 6.77138C119.602 7.22696 119.786 7.81481 119.786 8.53493V15.4348C119.786 15.861 119.867 16.1917 120.028 16.4268C120.205 16.6473 120.381 16.7649 120.557 16.7796L120.8 16.8236H121.483V17H120.139ZM126.45 17.0882C124.907 17.0882 123.651 16.6473 122.681 15.7655C121.711 14.8837 121.226 13.5243 121.226 11.6873C121.226 9.85025 121.726 8.42471 122.725 7.41067C123.739 6.39662 125.018 5.8896 126.561 5.8896C128.118 5.8896 129.382 6.33049 130.352 7.21227C131.322 8.09404 131.807 9.45345 131.807 11.2905C131.807 13.1275 131.3 14.5531 130.286 15.5671C129.287 16.5812 128.008 17.0882 126.45 17.0882ZM126.605 6.06595C125.488 6.06595 124.562 6.56563 123.827 7.56498C123.092 8.54963 122.725 9.93108 122.725 11.7093C122.725 13.4729 123.063 14.7809 123.739 15.6332C124.415 16.4856 125.311 16.9118 126.428 16.9118C127.545 16.9118 128.471 16.4195 129.206 15.4348C129.941 14.4355 130.308 13.054 130.308 11.2905C130.308 9.51224 129.97 8.19692 129.294 7.34453C128.618 6.49215 127.722 6.06595 126.605 6.06595ZM139.083 6.74933C138.848 6.55828 138.466 6.39662 137.936 6.26435C137.422 6.13209 137.033 6.06595 136.768 6.06595C136.504 6.06595 136.349 6.06595 136.305 6.06595C135.512 6.08065 134.938 6.2864 134.586 6.6832C134.233 7.0653 134.057 7.49884 134.057 7.98382C134.057 8.4688 134.211 8.8803 134.52 9.21831C134.828 9.54163 135.21 9.79881 135.666 9.98987C136.136 10.1662 136.636 10.372 137.165 10.6071C137.709 10.8423 138.208 11.0847 138.664 11.3346C139.134 11.5697 139.524 11.9224 139.832 12.3927C140.141 12.8483 140.295 13.4215 140.295 14.1122C140.295 14.8029 140.053 15.3908 139.568 15.8757C139.083 16.3607 138.539 16.684 137.936 16.8457C137.349 17.0073 136.709 17.0882 136.019 17.0882C134.52 17.0882 133.395 16.7575 132.646 16.0962L132.778 15.9639C133.072 16.2431 133.506 16.4709 134.079 16.6473C134.667 16.8236 135.232 16.9118 135.776 16.9118C136.643 16.9118 137.356 16.6767 137.914 16.2064C138.488 15.7214 138.774 15.1262 138.774 14.4208C138.774 13.7007 138.561 13.1275 138.135 12.7013C137.709 12.2604 137.187 11.9224 136.57 11.6873C135.967 11.4375 135.357 11.195 134.74 10.9598C134.123 10.71 133.601 10.372 133.175 9.94578C132.749 9.50489 132.536 8.99787 132.536 8.42471C132.536 7.85155 132.668 7.38862 132.932 7.03591C133.197 6.6685 133.55 6.41132 133.991 6.26435C134.74 6.01452 135.49 5.8896 136.239 5.8896C137.503 5.8896 138.488 6.12474 139.193 6.59502L139.083 6.74933ZM142.96 11.6212C142.96 13.4435 143.276 14.7809 143.908 15.6332C144.554 16.4856 145.399 16.9118 146.443 16.9118C147.912 16.9118 149.22 16.6914 150.367 16.2505L150.433 16.4048C149.257 16.8604 147.927 17.0882 146.443 17.0882C144.973 17.0882 143.775 16.6473 142.85 15.7655C141.924 14.8837 141.461 13.5243 141.461 11.6873C141.461 9.85025 141.946 8.42471 142.916 7.41067C143.886 6.39662 145.12 5.8896 146.619 5.8896C147.824 5.8896 148.838 6.24966 149.661 6.96978C150.484 7.6899 150.896 8.75538 150.896 10.1662C150.896 10.2397 150.896 10.3132 150.896 10.3867H143.026C142.982 10.7835 142.96 11.195 142.96 11.6212ZM149.397 10.2103C149.382 8.79947 149.11 7.75603 148.581 7.08C148.052 6.40397 147.369 6.06595 146.531 6.06595C145.693 6.06595 144.944 6.43336 144.283 7.16818C143.636 7.90299 143.224 8.91704 143.048 10.2103H149.397Z" fill="#004E56"/>
<path d="M9.69997 25.4948C8.36261 24.9804 7.09873 24.7232 5.90833 24.7232C4.73262 24.7232 3.81411 24.973 3.15277 25.4727C2.49144 25.9724 2.16077 26.6631 2.16077 27.5449C2.16077 28.6177 2.71923 29.4481 3.83615 30.0359C4.33582 30.2857 4.87959 30.5209 5.46744 30.7413C6.06999 30.9471 6.67254 31.1822 7.27508 31.4468C7.87763 31.7113 8.42874 32.0126 8.92842 32.3506C9.42809 32.6886 9.83224 33.1589 10.1409 33.7614C10.4495 34.3493 10.6038 35.1061 10.6038 36.032C10.6038 36.9432 10.3466 37.7221 9.83224 38.3687C9.31787 39.0153 8.69328 39.4562 7.95846 39.6914C7.23834 39.9118 6.39331 40.022 5.42335 40.022C3.61571 40.022 2.07259 39.5738 0.794017 38.6773L0.904239 38.501C1.38922 38.8831 2.01381 39.1991 2.77802 39.4489C3.55692 39.684 4.35052 39.8016 5.15882 39.8016C6.34922 39.8016 7.36326 39.5297 8.20095 38.986C9.05334 38.4275 9.47953 37.6119 9.47953 36.539C9.47953 35.3633 8.92107 34.4448 7.80415 33.7835C7.30448 33.4895 6.75337 33.2177 6.15082 32.9678C5.56297 32.718 4.96776 32.4608 4.36522 32.1963C3.76267 31.917 3.21156 31.6084 2.71188 31.2704C1.59496 30.5356 1.03651 29.4921 1.03651 28.1401C1.03651 27.0673 1.39656 26.2002 2.11668 25.5388C2.8368 24.8628 3.91698 24.5248 5.35722 24.5248C6.81215 24.5248 8.28913 24.7746 9.78815 25.2743L9.69997 25.4948ZM16.9889 40.0882C15.4458 40.0882 14.1893 39.6473 13.2193 38.7655C12.2494 37.8837 11.7644 36.5243 11.7644 34.6873C11.7644 32.8503 12.2641 31.4247 13.2634 30.4107C14.2775 29.3966 15.556 28.8896 17.0992 28.8896C18.657 28.8896 19.9208 29.3305 20.8908 30.2123C21.8608 31.094 22.3457 32.4535 22.3457 34.2905C22.3457 36.1275 21.8387 37.5531 20.8247 38.5671C19.8253 39.5812 18.5467 40.0882 16.9889 40.0882ZM17.1432 29.066C16.0263 29.066 15.1005 29.5656 14.3656 30.565C13.6308 31.5496 13.2634 32.9311 13.2634 34.7093C13.2634 36.4729 13.6014 37.7809 14.2775 38.6332C14.9535 39.4856 15.85 39.9118 16.9669 39.9118C18.0838 39.9118 19.0097 39.4195 19.7445 38.4348C20.4793 37.4355 20.8467 36.054 20.8467 34.2905C20.8467 32.5122 20.5087 31.1969 19.8327 30.3445C19.1566 29.4921 18.2602 29.066 17.1432 29.066ZM28.7732 29.066C27.7298 29.066 26.8554 29.5656 26.1499 30.565C25.4592 31.5643 25.1139 32.9458 25.1139 34.7093C25.1139 36.4729 25.4298 37.7809 26.0618 38.6332C26.7084 39.4856 27.5534 39.9118 28.5969 39.9118C29.9049 39.9118 31.0659 39.6914 32.0799 39.2505L32.146 39.4048C31.1026 39.8604 29.8828 40.0882 28.4867 40.0882C27.0905 40.0882 25.9295 39.6473 25.0036 38.7655C24.0778 37.8837 23.6148 36.5243 23.6148 34.6873C23.6148 32.8503 24.0998 31.4247 25.0698 30.4107C26.0397 29.3966 27.2742 28.8896 28.7732 28.8896C29.6109 28.8896 30.3825 29.0807 31.0879 29.4628C31.808 29.8449 32.3371 30.4254 32.6751 31.2043H31.2643C31.0438 30.4841 30.7058 29.9477 30.2502 29.595C29.8093 29.2423 29.317 29.066 28.7732 29.066ZM35.9916 40C35.389 40 34.9261 39.8677 34.6028 39.6032C34.2942 39.3387 34.1325 39.0741 34.1178 38.8096L34.0958 38.4348V28.9778H35.6389V38.4348C35.6389 38.861 35.7197 39.1917 35.8814 39.4268C36.0577 39.6473 36.2267 39.7649 36.3884 39.7796L36.6529 39.8236H37.3363V40H35.9916ZM34.228 26.5088C34.0517 26.3324 33.9635 26.112 33.9635 25.8475C33.9635 25.5829 34.0517 25.3625 34.228 25.1861C34.4044 24.9951 34.6248 24.8996 34.8894 24.8996C35.1539 24.8996 35.3743 24.9951 35.5507 25.1861C35.7418 25.3625 35.8373 25.5829 35.8373 25.8475C35.8373 26.112 35.7418 26.3324 35.5507 26.5088C35.3743 26.6852 35.1539 26.7733 34.8894 26.7733C34.6248 26.7733 34.4044 26.6852 34.228 26.5088ZM47.2923 40C46.2929 40 45.6096 39.8089 45.2422 39.4268C44.9041 39.1035 44.7351 38.8243 44.7351 38.5892V38.1262C44.015 39.4342 42.8614 40.0882 41.2742 40.0882C39.4224 40.0882 38.3716 39.2505 38.1218 37.5751C38.0924 37.3988 38.0777 37.2224 38.0777 37.046C38.0777 36.855 38.1071 36.6492 38.1659 36.4288C38.2247 36.2084 38.3937 35.9659 38.6729 35.7013C39.2314 35.1723 40.4585 34.8489 42.3543 34.7314C42.8246 34.6873 43.2582 34.6652 43.655 34.6652C44.0518 34.6652 44.4118 34.6799 44.7351 34.7093V31.05C44.7057 31.0353 44.7057 30.9691 44.7351 30.8516C44.7645 30.7193 44.7351 30.5576 44.647 30.3666C44.5735 30.1608 44.4706 29.9624 44.3383 29.7714C44.2061 29.5803 43.9709 29.4187 43.6329 29.2864C43.2949 29.1394 42.854 29.066 42.3102 29.066C41.7665 29.066 41.1272 29.1688 40.3924 29.3746C39.6723 29.5656 39.1432 29.7567 38.8052 29.9477L38.717 29.7934C40.025 29.1909 41.355 28.8896 42.707 28.8896C44.2208 28.8896 45.2201 29.1615 45.7051 29.7052C46.0872 30.1314 46.2782 30.5797 46.2782 31.05V38.4348C46.2782 38.861 46.3591 39.1917 46.5207 39.4268C46.6971 39.6473 46.8734 39.7649 47.0498 39.7796L47.2923 39.8236H47.9757V40H47.2923ZM41.6269 39.9118C42.4058 39.9118 43.1038 39.6473 43.7211 39.1182C44.353 38.5745 44.691 38.0527 44.7351 37.5531V34.8857C44.3383 34.8563 43.9342 34.8416 43.5227 34.8416C43.1259 34.8416 42.7291 34.8636 42.3323 34.9077C41.2154 35.04 40.4879 35.2898 40.1499 35.6572C39.8119 36.0247 39.6429 36.5317 39.6429 37.1783C39.6429 37.2959 39.6502 37.4281 39.6649 37.5751C39.7972 39.1329 40.4512 39.9118 41.6269 39.9118ZM51.9339 40C50.6406 40 49.8249 39.662 49.4869 38.986C49.4134 38.839 49.3767 38.7067 49.3767 38.5892V23.4887H50.9198V38.4348C50.9198 38.861 51.0006 39.1917 51.1623 39.4268C51.3387 39.6473 51.515 39.7649 51.6914 39.7796L51.9339 39.8236H52.6172V40H51.9339ZM54.1955 34.6212C54.1955 36.4435 54.5114 37.7809 55.1434 38.6332C55.79 39.4856 56.6351 39.9118 57.6785 39.9118C59.1481 39.9118 60.4561 39.6914 61.6024 39.2505L61.6685 39.4048C60.4928 39.8604 59.1628 40.0882 57.6785 40.0882C56.2089 40.0882 55.0111 39.6473 54.0853 38.7655C53.1594 37.8837 52.6965 36.5243 52.6965 34.6873C52.6965 32.8503 53.1814 31.4247 54.1514 30.4107C55.1213 29.3966 56.3558 28.8896 57.8549 28.8896C59.06 28.8896 60.074 29.2497 60.897 29.9698C61.72 30.6899 62.1315 31.7554 62.1315 33.1662C62.1315 33.2397 62.1315 33.3132 62.1315 33.3867H54.2616C54.2175 33.7835 54.1955 34.195 54.1955 34.6212ZM60.6325 33.2103C60.6178 31.7995 60.3459 30.756 59.8168 30.08C59.2877 29.404 58.6044 29.066 57.7667 29.066C56.929 29.066 56.1795 29.4334 55.5181 30.1682C54.8715 30.903 54.46 31.917 54.2837 33.2103H60.6325Z" fill="#EEFDFF"/>
</svg>
