<svg width="64" height="59" viewBox="0 0 64 59" fill="none" xmlns="http://www.w3.org/2000/svg">
<path d="M63.0118 56.7441H46.0475C39.9851 56.7441 35.0705 51.8296 35.0705 45.7672V32.4951H52.434C58.276 32.4951 63.0118 37.2309 63.0118 43.0729V56.7441Z" fill="#004E56"/>
<path d="M34.9895 28.5637L34.8028 11.2906C34.7372 5.22858 39.5983 0.261206 45.6604 0.195667L63.092 0.00720802L63.2831 17.6795C63.3463 23.521 58.6619 28.3078 52.8203 28.3709L34.9895 28.5637Z" fill="#6DA4AA"/>
<path d="M0.742432 58.0232L0.584505 43.4156C0.518967 37.3536 5.38008 32.3862 11.4421 32.3207L28.1892 32.1396L28.3515 47.1463C28.4146 52.9879 23.7303 57.7747 17.8887 57.8378L0.742432 58.0232Z" fill="#6DA4AA"/>
</svg>
