<svg width="38" height="36" viewBox="0 0 38 36" fill="none" xmlns="http://www.w3.org/2000/svg">
<path d="M0.23288 0.772461H10.4764C14.1371 0.772461 17.1046 3.74 17.1046 7.40065V15.4147H6.62004C3.0925 15.4147 0.23288 12.5551 0.23288 9.02757V0.772461Z" fill="#EEFDFF"/>
<path d="M17.1536 17.7883L17.2663 28.2183C17.3059 31.8788 14.3706 34.8782 10.7102 34.9178L0.18441 35.0316L0.0690426 24.3606C0.0309076 20.8332 2.85946 17.9429 6.38678 17.9047L17.1536 17.7883Z" fill="#EEFDFF"/>
<path d="M37.833 0L37.9283 8.82048C37.9679 12.4809 35.0326 15.4804 31.3722 15.5199L21.2598 15.6293L21.1618 6.56777C21.1237 3.04044 23.9522 0.150069 27.4796 0.111934L37.833 0Z" fill="#EEFDFF"/>
</svg>
