<svg width="126" height="117" viewBox="0 0 126 117" fill="none" xmlns="http://www.w3.org/2000/svg">
<path d="M0.771301 2.55859H34.6999C46.8247 2.55859 56.6538 12.3877 56.6538 24.5124V51.0566H21.9268C10.243 51.0566 0.771301 41.585 0.771301 29.9011V2.55859Z" fill="#004E56"/>
<path d="M56.8159 58.9189L57.1893 93.4652C57.3204 105.589 47.5982 115.524 35.4741 115.655L0.610757 116.032L0.228637 80.6875C0.102326 69.0043 9.47102 59.4308 21.1542 59.3045L56.8159 58.9189Z" fill="#6DA4AA"/>
<path d="M125.31 0L125.626 29.2151C125.757 41.3392 116.035 51.2739 103.911 51.405L70.4164 51.7671L70.0919 21.7537C69.9656 10.0705 79.3343 0.497057 91.0175 0.370747L125.31 0Z" fill="#6DA4AA"/>
</svg>
