<svg width="28" height="25" viewBox="0 0 28 25" fill="none" xmlns="http://www.w3.org/2000/svg">
<g id="Group 26">
<path id="Rectangle 1" d="M1.09375 0.887695H8.15043C10.6722 0.887695 12.7165 2.932 12.7165 5.45378V10.9746H5.49379C3.06372 10.9746 1.09375 9.00463 1.09375 6.57455V0.887695Z" fill="#EEFDFF"/>
<path id="Rectangle 7" d="M12.7505 12.6099L12.8282 19.795C12.8554 22.3166 10.8333 24.3829 8.31171 24.4102L1.06063 24.4886L0.981151 17.1374C0.95488 14.7075 2.90344 12.7163 5.33337 12.6901L12.7505 12.6099Z" fill="#EEFDFF"/>
<path id="Rectangle 6" d="M26.9961 0.355469L27.0618 6.43179C27.089 8.95342 25.067 11.0197 22.5453 11.047L15.579 11.1223L15.5115 4.87994C15.4852 2.45 17.4338 0.45885 19.8637 0.432579L26.9961 0.355469Z" fill="#EEFDFF"/>
</g>
</svg>
