<svg width="64" height="59" viewBox="0 0 64 59" fill="none" xmlns="http://www.w3.org/2000/svg">
<g id="Group 26">
<path id="Rectangle 1" d="M63.0118 56.7444H46.0475C39.9851 56.7444 35.0706 51.8299 35.0706 45.7675V32.4954H52.4341C58.276 32.4954 63.0118 37.2312 63.0118 43.0731V56.7444Z" fill="#004E56"/>
<path id="Rectangle 7" d="M34.9895 28.564L34.8028 11.2909C34.7372 5.22882 39.5983 0.26145 45.6604 0.195911L63.092 0.00745216L63.2831 17.6797C63.3463 23.5213 58.6619 28.308 52.8203 28.3712L34.9895 28.564Z" fill="#6DA4AA"/>
<path id="Rectangle 6" d="M0.742432 58.0234L0.584505 43.4159C0.518967 37.3538 5.38008 32.3865 11.4421 32.3209L28.1892 32.1399L28.3515 47.1466C28.4146 52.9882 23.7303 57.7749 17.8887 57.8381L0.742432 58.0234Z" fill="#6DA4AA"/>
</g>
</svg>
