<svg width="61" height="59" viewBox="0 0 61 59" fill="none" xmlns="http://www.w3.org/2000/svg">
<g id="Group 26">
<path id="Rectangle 1" d="M6 6H19.7599C24.6771 6 28.6633 9.98621 28.6633 14.9035V25.6686H14.5797C9.84126 25.6686 6 21.8273 6 17.0889V6Z" fill="#6DA4AA"/>
<path id="Rectangle 7" d="M28.8024 29.8683L28.9917 47.3812C29.0582 53.5274 24.1296 58.5637 17.9834 58.6302L0.309664 58.8212L0.115952 40.9037C0.0519198 34.981 4.8013 30.1278 10.724 30.0637L28.8024 29.8683Z" fill="#6DA4AA"/>
<path id="Rectangle 6" d="M60.5249 0L60.685 14.8104C60.7515 20.9566 55.8229 25.9929 49.6767 26.0593L32.697 26.2429L32.5326 11.0279C32.4685 5.10517 37.2179 0.251979 43.1406 0.187947L60.5249 0Z" fill="#6DA4AA"/>
<path id="Rectangle 2" d="M33.106 29.7662H48.5858C54.1177 29.7662 58.6022 34.2507 58.6022 39.7826V51.8934H42.7581C37.4274 51.8934 33.106 47.5719 33.106 42.2412V29.7662Z" fill="#6DA4AA"/>
</g>
</svg>
