<svg width="428" height="429" viewBox="0 0 428 429" fill="none" xmlns="http://www.w3.org/2000/svg">
<path d="M256.75 251.749V247.463H257.11V245.68H259.039V245.32H263.616V245.68H268.193V245.32H272.77V245.68H277.347V245.32H281.924V245.68H286.501V245.32H291.079V245.68H295.656V245.32H300.233V245.68H304.81V245.32H309.387V245.68H313.964V245.32H318.541V245.68H320.83C321.576 245.68 322.319 245.69 323.061 245.709L323.07 245.349C324.567 245.387 326.054 245.464 327.531 245.579L327.503 245.938C328.989 246.054 330.464 246.207 331.927 246.398L331.974 246.041C333.457 246.235 334.928 246.466 336.386 246.735L336.321 247.089C337.785 247.359 339.236 247.666 340.672 248.009L340.756 247.659C342.209 248.007 343.648 248.392 345.071 248.813L344.969 249.158C346.395 249.58 347.806 250.038 349.2 250.532L349.32 250.192C350.727 250.691 352.117 251.225 353.489 251.794L353.352 252.127C354.724 252.696 356.079 253.3 357.414 253.938L357.569 253.613C358.915 254.256 360.242 254.934 361.548 255.644L361.376 255.961C362.68 256.67 363.964 257.413 365.226 258.188L365.415 257.882C366.685 258.662 367.934 259.475 369.159 260.318L368.955 260.615C370.178 261.457 371.377 262.33 372.552 263.233L372.771 262.947C373.953 263.855 375.11 264.793 376.242 265.761L376.008 266.034C377.135 266.998 378.237 267.991 379.313 269.012L379.56 268.751C380.641 269.776 381.694 270.829 382.719 271.91L382.458 272.157C383.479 273.233 384.472 274.335 385.436 275.462L385.709 275.228C386.677 276.36 387.615 277.517 388.523 278.698L388.237 278.918C389.14 280.093 390.013 281.292 390.855 282.515L391.152 282.311C391.995 283.536 392.808 284.785 393.588 286.055L393.281 286.244C394.057 287.506 394.8 288.79 395.509 290.094L395.826 289.922C396.536 291.228 397.214 292.555 397.857 293.901L397.532 294.056C398.17 295.391 398.774 296.746 399.343 298.118L399.676 297.98C400.245 299.353 400.779 300.743 401.278 302.15L400.938 302.27C401.432 303.664 401.89 305.075 402.312 306.501L402.657 306.399C403.078 307.822 403.463 309.261 403.811 310.714L403.46 310.798C403.804 312.234 404.111 313.685 404.381 315.149L404.735 315.084C405.004 316.542 405.235 318.013 405.429 319.496L405.072 319.543C405.263 321.006 405.416 322.481 405.532 323.967L405.891 323.939C406.005 325.416 406.083 326.903 406.121 328.4L405.761 328.409C405.78 329.151 405.79 329.894 405.79 330.64V332.783H406.15V337.069H405.79V341.356H406.15V345.642H405.79V349.928H406.15V354.214H405.79V358.501H406.15V362.787H405.79V367.073H406.15V371.359H405.79V375.646H406.15V379.932H405.79V384.218H406.15V388.504H405.79V392.791H406.15V397.077H405.79V398.86H403.861V399.22H399.284V398.86H394.707V399.22H390.13V398.86H385.553V399.22H380.976V398.86H376.399V399.22H371.821V398.86H367.244V399.22H362.667V398.86H358.09V399.22H353.513V398.86H348.936V399.22H344.359V398.86H342.07C341.324 398.86 340.581 398.85 339.839 398.831L339.83 399.191C338.333 399.153 336.846 399.075 335.369 398.961L335.397 398.602C333.911 398.486 332.436 398.333 330.973 398.142L330.926 398.499C329.443 398.305 327.972 398.074 326.514 397.805L326.579 397.451C325.115 397.181 323.664 396.874 322.228 396.53L322.144 396.881C320.691 396.533 319.252 396.148 317.829 395.727L317.931 395.382C316.505 394.96 315.094 394.502 313.7 394.008L313.58 394.347C312.173 393.849 310.783 393.315 309.411 392.746L309.548 392.413C308.176 391.844 306.821 391.24 305.486 390.602L305.331 390.927C303.985 390.284 302.658 389.606 301.352 388.896L301.524 388.579C300.22 387.87 298.936 387.126 297.674 386.351L297.485 386.658C296.215 385.878 294.966 385.065 293.741 384.222L293.945 383.925C292.722 383.083 291.523 382.21 290.348 381.307L290.129 381.593C288.947 380.685 287.79 379.747 286.658 378.779L286.892 378.506C285.765 377.542 284.663 376.549 283.587 375.528L283.34 375.789C282.259 374.764 281.206 373.71 280.181 372.63L280.442 372.382C279.421 371.307 278.428 370.205 277.464 369.078L277.191 369.311C276.223 368.18 275.285 367.023 274.377 365.841L274.663 365.622C273.76 364.447 272.887 363.248 272.045 362.025L271.748 362.229C270.905 361.004 270.092 359.755 269.312 358.485L269.619 358.296C268.843 357.034 268.1 355.75 267.391 354.446L267.074 354.618C266.364 353.312 265.686 351.985 265.043 350.639L265.368 350.484C264.73 349.149 264.126 347.794 263.557 346.422L263.224 346.559C262.655 345.187 262.121 343.797 261.622 342.39L261.962 342.27C261.468 340.876 261.01 339.465 260.588 338.039L260.243 338.141C259.822 336.718 259.437 335.279 259.089 333.826L259.44 333.742C259.096 332.306 258.789 330.855 258.519 329.391L258.165 329.456C257.896 327.998 257.665 326.527 257.471 325.044L257.828 324.997C257.637 323.534 257.484 322.059 257.368 320.573L257.009 320.601C256.895 319.124 256.817 317.637 256.779 316.14L257.139 316.131C257.12 315.389 257.11 314.646 257.11 313.9V311.757H256.75V307.471H257.11V303.184H256.75V298.898H257.11V294.612H256.75V290.326H257.11V286.039H256.75V281.753H257.11V277.467H256.75V273.181H257.11V268.894H256.75V264.608H257.11V260.322H256.75V256.036H257.11V251.749H256.75Z" stroke="#6DA4AA" stroke-width="0.72" stroke-linejoin="round" stroke-dasharray="4.5 4.5"/>
<path d="M214.27 236.32H218.59V236.68H220.39V238.509H220.75V242.886H220.39V247.263H220.75V251.64H220.39V256.018H220.75V260.395H220.39V264.772H220.75V269.149H220.39V273.527H220.75V277.904H220.39V282.281H220.75V286.659H220.39V291.036H220.75V295.413H220.39V299.79H220.75V304.168H220.39V308.545H220.75V312.922H220.39V317.299H220.75V321.677H220.39V326.054H220.75V330.431H220.39V332.62C220.39 333.362 220.38 334.101 220.359 334.837L220.719 334.847C220.678 336.336 220.596 337.815 220.474 339.283L220.115 339.253C219.992 340.73 219.828 342.195 219.625 343.647L219.981 343.697C219.775 345.17 219.528 346.631 219.242 348.077L218.889 348.007C218.602 349.459 218.275 350.896 217.909 352.318L218.258 352.408C217.888 353.848 217.478 355.272 217.03 356.679L216.687 356.57C216.238 357.979 215.75 359.371 215.226 360.745L215.562 360.873C215.032 362.261 214.464 363.629 213.86 364.978L213.531 364.83C212.927 366.179 212.286 367.507 211.61 368.813L211.929 368.979C211.247 370.296 210.529 371.592 209.777 372.865L209.467 372.682C208.716 373.953 207.93 375.201 207.111 376.424L207.41 376.625C206.585 377.857 205.727 379.064 204.836 380.246L204.548 380.029C203.66 381.208 202.74 382.36 201.788 383.486L202.063 383.718C201.107 384.85 200.119 385.954 199.102 387.03L198.84 386.783C197.827 387.854 196.784 388.897 195.713 389.91L195.96 390.172C194.884 391.189 193.78 392.177 192.648 393.133L192.416 392.858C191.29 393.81 190.138 394.73 188.959 395.618L189.176 395.906C187.994 396.797 186.787 397.655 185.555 398.48L185.354 398.181C184.131 399 182.883 399.786 181.612 400.537L181.795 400.847C180.522 401.599 179.226 402.317 177.909 402.999L177.743 402.68C176.437 403.356 175.108 403.997 173.76 404.601L173.908 404.93C172.559 405.534 171.19 406.102 169.803 406.632L169.675 406.296C168.301 406.82 166.909 407.308 165.5 407.757L165.609 408.1C164.202 408.548 162.778 408.958 161.338 409.328L161.248 408.979C159.826 409.345 158.389 409.672 156.937 409.959L157.007 410.312C155.561 410.599 154.1 410.845 152.627 411.051L152.577 410.695C151.125 410.898 149.659 411.062 148.183 411.185L148.213 411.544C146.745 411.666 145.266 411.748 143.777 411.789L143.767 411.429C143.031 411.45 142.291 411.46 141.55 411.46H139.39V411.82H135.07V411.46H130.75V411.82H126.43V411.46H122.11V411.82H117.79V411.46H113.47V411.82H109.15V411.46H104.83V411.82H100.51V411.46H96.1899V411.82H91.8699V411.46H87.5499V411.82H83.2299V411.46H78.9099V411.82H74.5899V411.46H70.2699V411.82H65.9499V411.46H61.6299V411.82H57.3099V411.46H55.5099V409.631H55.1499V405.254H55.5099V400.877H55.1499V396.499H55.5099V392.122H55.1499V387.745H55.5099V383.368H55.1499V378.99H55.5099V374.613H55.1499V370.236H55.5099V365.859H55.1499V361.481H55.5099V357.104H55.1499V352.727H55.5099V348.349H55.1499V343.972H55.5099V339.595H55.1499V335.218H55.5099V330.84H55.1499V326.463H55.5099V322.086H55.1499V317.709H55.5099V315.52C55.5099 314.778 55.5201 314.039 55.5405 313.303L55.1806 313.293C55.2217 311.804 55.304 310.325 55.4262 308.857L55.7849 308.887C55.9079 307.41 56.0717 305.945 56.2749 304.493L55.9184 304.443C56.1246 302.97 56.3713 301.509 56.6574 300.063L57.0106 300.133C57.2978 298.681 57.6248 297.244 57.9906 295.822L57.6419 295.732C58.0123 294.292 58.4221 292.868 58.8703 291.461L59.2133 291.57C59.6621 290.161 60.1495 288.769 60.6742 287.395L60.3379 287.267C60.8678 285.879 61.4355 284.511 62.0399 283.162L62.3684 283.31C62.9726 281.961 63.6136 280.633 64.2901 279.326L63.9704 279.161C64.6524 277.843 65.3703 276.548 66.1229 275.275L66.4328 275.458C67.184 274.187 67.9698 272.939 68.7891 271.715L68.4899 271.515C69.3147 270.283 70.1732 269.076 71.064 267.894L71.3514 268.11C72.2396 266.932 73.16 265.78 74.1114 264.654L73.8364 264.422C74.7929 263.29 75.7806 262.186 76.7981 261.11L77.0597 261.357C78.0729 260.286 79.1158 259.243 80.1871 258.23L79.9397 257.968C81.0156 256.951 82.12 255.963 83.2516 255.006L83.484 255.281C84.6096 254.33 85.7621 253.41 86.9404 252.522L86.7237 252.234C87.9056 251.343 89.1131 250.485 90.3451 249.66L90.5454 249.959C91.7691 249.14 93.0169 248.354 94.2877 247.603L94.1045 247.293C95.3775 246.54 96.6734 245.822 97.9909 245.14L98.1564 245.46C99.4632 244.784 100.791 244.143 102.14 243.538L101.992 243.21C103.341 242.606 104.709 242.038 106.097 241.508L106.225 241.844C107.599 241.32 108.991 240.832 110.4 240.383L110.291 240.04C111.698 239.592 113.122 239.182 114.562 238.812L114.652 239.161C116.074 238.795 117.511 238.468 118.963 238.181L118.893 237.827C120.339 237.541 121.799 237.295 123.273 237.088L123.323 237.445C124.775 237.242 126.24 237.078 127.717 236.955L127.687 236.596C129.155 236.474 130.634 236.392 132.123 236.351L132.133 236.711C132.869 236.69 133.608 236.68 134.35 236.68H136.51V236.32H140.83V236.68H145.15V236.32H149.47V236.68H153.79V236.32H158.11V236.68H162.43V236.32H166.75V236.68H171.07V236.32H175.39V236.68H179.71V236.32H184.03V236.68H188.35V236.32H192.67V236.68H196.99V236.32H201.31V236.68H205.63V236.32H209.95V236.68H214.27V236.32Z" stroke="#004E56" stroke-width="0.72" stroke-linejoin="round" stroke-dasharray="4.5 4.5"/>
<path d="M421.27 32.02H425.59V32.38H427.39V34.2086H427.75V38.5859H427.39V42.9632H427.75V47.3404H427.39V51.7177H427.75V56.095H427.39V60.4722H427.75V64.8495H427.39V69.2268H427.75V73.6041H427.39V77.9813H427.75V82.3586H427.39V86.7359H427.75V91.1132H427.39V95.4904H427.75V99.8677H427.39V104.245H427.75V108.622H427.39V113H427.75V117.377H427.39V121.754H427.75V126.131H427.39V128.32C427.39 129.062 427.38 129.801 427.359 130.537L427.719 130.547C427.678 132.036 427.596 133.515 427.474 134.983L427.115 134.953C426.992 136.43 426.828 137.895 426.625 139.347L426.981 139.397C426.775 140.87 426.528 142.331 426.242 143.777L425.889 143.707C425.602 145.159 425.275 146.596 424.909 148.018L425.258 148.108C424.888 149.548 424.478 150.972 424.03 152.379L423.687 152.27C423.238 153.679 422.75 155.071 422.226 156.445L422.562 156.573C422.032 157.961 421.464 159.329 420.86 160.678L420.531 160.53C419.927 161.879 419.286 163.207 418.61 164.514L418.929 164.679C418.247 165.996 417.529 167.292 416.777 168.565L416.467 168.382C415.716 169.653 414.93 170.901 414.111 172.124L414.41 172.325C413.585 173.557 412.727 174.764 411.836 175.946L411.548 175.729C410.66 176.908 409.74 178.06 408.788 179.186L409.063 179.418C408.107 180.55 407.119 181.654 406.102 182.73L405.84 182.483C404.827 183.554 403.784 184.597 402.713 185.61L402.96 185.872C401.884 186.889 400.78 187.877 399.648 188.833L399.416 188.558C398.29 189.51 397.138 190.43 395.959 191.318L396.176 191.606C394.994 192.497 393.787 193.355 392.555 194.18L392.354 193.881C391.131 194.7 389.883 195.486 388.612 196.237L388.795 196.547C387.522 197.3 386.226 198.017 384.909 198.699L384.743 198.38C383.437 199.056 382.108 199.697 380.76 200.301L380.908 200.63C379.559 201.234 378.19 201.802 376.803 202.332L376.675 201.996C375.301 202.52 373.909 203.008 372.5 203.457L372.609 203.8C371.202 204.248 369.778 204.658 368.338 205.028L368.248 204.679C366.826 205.045 365.389 205.372 363.937 205.659L364.007 206.012C362.561 206.299 361.1 206.545 359.627 206.751L359.577 206.395C358.125 206.598 356.659 206.762 355.183 206.885L355.213 207.244C353.745 207.366 352.266 207.448 350.777 207.489L350.767 207.129C350.031 207.15 349.291 207.16 348.55 207.16H346.39V207.52H342.07V207.16H337.75V207.52H333.43V207.16H329.11V207.52H324.79V207.16H320.47V207.52H316.15V207.16H311.83V207.52H307.51V207.16H303.19V207.52H298.87V207.16H294.55V207.52H290.23V207.16H285.91V207.52H281.59V207.16H277.27V207.52H272.95V207.16H268.63V207.52H264.31V207.16H262.51V205.331H262.15V200.954H262.51V196.577H262.15V192.2H262.51V187.822H262.15V183.445H262.51V179.068H262.15V174.69H262.51V170.313H262.15V165.936H262.51V161.559H262.15V157.181H262.51V152.804H262.15V148.427H262.51V144.05H262.15V139.672H262.51V135.295H262.15V130.918H262.51V126.54H262.15V122.163H262.51V117.786H262.15V113.409H262.51V111.22C262.51 110.478 262.52 109.739 262.54 109.003L262.181 108.993C262.222 107.504 262.304 106.025 262.426 104.557L262.785 104.587C262.908 103.11 263.072 101.645 263.275 100.193L262.918 100.143C263.125 98.6695 263.371 97.2093 263.657 95.7631L264.011 95.833C264.298 94.3812 264.625 92.9438 264.991 91.5219L264.642 91.4322C265.012 89.9922 265.422 88.5681 265.87 87.161L266.213 87.2702C266.662 85.8609 267.15 84.4688 267.674 83.0951L267.338 82.9666C267.868 81.5794 268.436 80.2109 269.04 78.8624L269.368 79.0096C269.973 77.6614 270.614 76.3333 271.29 75.0264L270.97 74.8609C271.652 73.5435 272.37 72.2476 273.123 70.9746L273.433 71.1578C274.184 69.887 274.97 68.6392 275.789 67.4155L275.49 67.2152C276.315 65.9832 277.173 64.7757 278.064 63.5938L278.351 63.8105C279.24 62.6322 280.16 61.4797 281.111 60.3541L280.836 60.1217C281.793 58.9901 282.781 57.8857 283.798 56.8098L284.06 57.0572C285.073 55.9859 286.116 54.943 287.187 53.9298L286.94 53.6682C288.016 52.6507 289.12 51.663 290.252 50.7065L290.484 50.9815C291.61 50.0301 292.762 49.1097 293.94 48.2215L293.724 47.9341C294.906 47.0433 296.113 46.1848 297.345 45.36L297.545 45.6592C298.769 44.8399 300.017 44.0541 301.288 43.3028L301.105 42.9929C302.378 42.2404 303.673 41.5225 304.991 40.8405L305.156 41.1602C306.463 40.4837 307.791 39.8427 309.14 39.2385L308.992 38.91C310.341 38.3056 311.709 37.7379 313.097 37.208L313.225 37.5443C314.599 37.0196 315.991 36.5322 317.4 36.0834L317.291 35.7403C318.698 35.2922 320.122 34.8824 321.562 34.512L321.652 34.8606C323.074 34.4949 324.511 34.1678 325.963 33.8806L325.893 33.5275C327.339 33.2414 328.799 32.9947 330.273 32.7885L330.323 33.145C331.775 32.9417 333.24 32.778 334.717 32.655L334.687 32.2963C336.155 32.174 337.634 32.0918 339.123 32.0507L339.133 32.4106C339.869 32.3902 340.608 32.38 341.35 32.38H343.51V32.02H347.83V32.38H352.15V32.02H356.47V32.38H360.79V32.02H365.11V32.38H369.43V32.02H373.75V32.38H378.07V32.02H382.39V32.38H386.71V32.02H391.03V32.38H395.35V32.02H399.67V32.38H403.99V32.02H408.31V32.38H412.63V32.02H416.95V32.38H421.27V32.02Z" stroke="#004E56" stroke-width="0.72" stroke-linejoin="round" stroke-dasharray="4.5 4.5"/>
<path d="M234.25 79.72C234.25 35.9791 269.709 0.519989 313.45 0.519989H417.85V110.68C417.85 154.421 382.391 189.88 338.65 189.88H234.25V79.72Z" fill="#6DA4AA"/>
<path d="M71.3501 60.9494V56.6631H71.7101V54.88H73.6387V54.52H78.2158V54.88H82.7929V54.52H87.3701V54.88H91.9472V54.52H96.5244V54.88H101.102V54.52H105.679V54.88H110.256V54.52H114.833V54.88H119.41V54.52H123.987V54.88H128.564V54.52H133.141V54.88H135.43C136.176 54.88 136.919 54.8896 137.661 54.9087L137.67 54.5488C139.167 54.5874 140.654 54.6645 142.131 54.7792L142.103 55.1382C143.589 55.2536 145.064 55.4072 146.527 55.5981L146.574 55.2411C148.057 55.4346 149.528 55.6662 150.986 55.9348L150.921 56.2888C152.385 56.5585 153.836 56.8658 155.272 57.2095L155.356 56.8594C156.809 57.2071 158.248 57.5919 159.671 58.0129L159.569 58.3581C160.995 58.78 162.406 59.2382 163.8 59.7318L163.92 59.3925C165.327 59.8908 166.717 60.4251 168.09 60.9941L167.952 61.3267C169.324 61.8959 170.679 62.5 172.014 63.138L172.169 62.8132C173.515 63.4564 174.842 64.1338 176.148 64.8443L175.976 65.1606C177.28 65.8704 178.564 66.6134 179.826 67.3885L180.015 67.0817C181.285 67.862 182.534 68.6746 183.759 69.5184L183.555 69.8149C184.778 70.6567 185.977 71.5296 187.152 72.4326L187.372 72.1472C188.553 73.0551 189.71 73.9933 190.842 74.9606L190.608 75.2342C191.735 76.1982 192.837 77.1911 193.913 78.2119L194.16 77.9508C195.241 78.9761 196.294 80.0295 197.319 81.1096L197.058 81.3574C198.079 82.4328 199.072 83.5348 200.036 84.6624L200.309 84.4285C201.277 85.5599 202.215 86.717 203.123 87.8985L202.837 88.1179C203.74 89.293 204.613 90.4923 205.455 91.7148L205.752 91.5106C206.595 92.736 207.408 93.9846 208.188 95.2552L207.882 95.4436C208.657 96.7058 209.4 97.9897 210.11 99.2944L210.426 99.1223C211.136 100.428 211.814 101.755 212.457 103.101L212.132 103.256C212.77 104.591 213.374 105.946 213.943 107.318L214.276 107.181C214.845 108.553 215.379 109.943 215.878 111.35L215.538 111.47C216.032 112.864 216.49 114.275 216.912 115.701L217.257 115.599C217.678 117.022 218.063 118.461 218.411 119.914L218.061 119.998C218.404 121.434 218.712 122.885 218.981 124.349L219.335 124.284C219.604 125.742 219.835 127.213 220.029 128.696L219.672 128.743C219.863 130.206 220.016 131.681 220.132 133.167L220.491 133.139C220.606 134.616 220.683 136.103 220.721 137.6L220.361 137.609C220.38 138.351 220.39 139.094 220.39 139.84V141.983H220.75V146.269H220.39V150.556H220.75V154.842H220.39V159.128H220.75V163.414H220.39V167.701H220.75V171.987H220.39V176.273H220.75V180.559H220.39V184.846H220.75V189.132H220.39V193.418H220.75V197.704H220.39V201.991H220.75V206.277H220.39V208.06H218.462V208.42H213.884V208.06H209.307V208.42H204.73V208.06H200.153V208.42H195.576V208.06H190.999V208.42H186.422V208.06H181.844V208.42H177.267V208.06H172.69V208.42H168.113V208.06H163.536V208.42H158.959V208.06H156.67C155.924 208.06 155.181 208.05 154.439 208.031L154.43 208.391C152.933 208.353 151.446 208.275 149.969 208.161L149.997 207.802C148.511 207.686 147.036 207.533 145.573 207.342L145.527 207.699C144.043 207.505 142.572 207.274 141.114 207.005L141.179 206.651C139.715 206.381 138.264 206.074 136.828 205.73L136.744 206.081C135.291 205.733 133.852 205.348 132.429 204.927L132.531 204.582C131.105 204.16 129.694 203.702 128.301 203.208L128.18 203.548C126.773 203.049 125.383 202.515 124.011 201.946L124.149 201.613C122.776 201.044 121.421 200.44 120.086 199.802L119.931 200.127C118.585 199.484 117.258 198.806 115.952 198.096L116.125 197.779C114.82 197.07 113.536 196.327 112.274 195.551L112.085 195.858C110.815 195.078 109.566 194.265 108.341 193.422L108.545 193.125C107.322 192.283 106.123 191.41 104.948 190.507L104.729 190.793C103.547 189.885 102.39 188.947 101.259 187.979L101.493 187.706C100.365 186.742 99.2629 185.749 98.1876 184.728L97.9397 184.989C96.8596 183.964 95.8063 182.911 94.7809 181.83L95.042 181.583C94.0212 180.507 93.0283 179.405 92.0643 178.278L91.7907 178.512C90.8234 177.38 89.8852 176.223 88.9773 175.041L89.2627 174.822C88.3597 173.647 87.4868 172.448 86.645 171.225L86.3485 171.429C85.5047 170.204 84.6921 168.955 83.9119 167.685L84.2186 167.496C83.4435 166.234 82.7005 164.95 81.9907 163.646L81.6744 163.818C80.9639 162.512 80.2865 161.185 79.6433 159.839L79.9681 159.684C79.3301 158.349 78.726 156.994 78.1568 155.622L77.8242 155.759C77.2552 154.387 76.7209 152.997 76.2226 151.59L76.5619 151.47C76.0683 150.076 75.6101 148.665 75.1882 147.239L74.843 147.341C74.422 145.918 74.0372 144.479 73.6895 143.026L74.0396 142.942C73.6959 141.506 73.3887 140.055 73.119 138.591L72.7649 138.656C72.4963 137.198 72.2647 135.727 72.0712 134.244L72.4282 134.197C72.2373 132.734 72.0837 131.259 71.9683 129.773L71.6094 129.801C71.4946 128.324 71.4175 126.837 71.3789 125.34L71.7388 125.331C71.7197 124.589 71.7101 123.846 71.7101 123.1V120.957H71.3501V116.671H71.7101V112.384H71.3501V108.098H71.7101V103.812H71.3501V99.5256H71.7101V95.2394H71.3501V90.9531H71.7101V86.6669H71.3501V82.3806H71.7101V78.0944H71.3501V73.8081H71.7101V69.5219H71.3501V65.2356H71.7101V60.9494H71.3501Z" stroke="#6DA4AA" stroke-width="0.72" stroke-linejoin="round" stroke-dasharray="4.5 4.5"/>
<path d="M31.21 9.16006H122.65C166.391 9.16006 201.85 44.6191 201.85 88.3601V189.16H110.41C66.669 189.16 31.21 153.701 31.21 109.96V9.16006Z" fill="#004E56"/>
<path d="M0.25 297.16C0.25 253.419 35.709 217.96 79.45 217.96H204.01V349C204.01 392.741 168.551 428.2 124.81 428.2H0.25V297.16Z" fill="#6DA4AA"/>
<path d="M236.41 217.96H314.17C357.911 217.96 393.37 253.419 393.37 297.16V385.72H315.61C271.869 385.72 236.41 350.261 236.41 306.52V217.96Z" fill="#004E56"/>
</svg>
