<svg width="428" height="428" viewBox="0 0 428 428" fill="none" xmlns="http://www.w3.org/2000/svg">
<path d="M256.75 251.429V247.143H257.11V245.36H259.039V245H263.616V245.36H268.193V245H272.77V245.36H277.347V245H281.924V245.36H286.501V245H291.079V245.36H295.656V245H300.233V245.36H304.81V245H309.387V245.36H313.964V245H318.541V245.36H320.83C321.576 245.36 322.319 245.37 323.061 245.389L323.07 245.029C324.567 245.068 326.054 245.145 327.531 245.259L327.503 245.618C328.989 245.734 330.464 245.887 331.927 246.078L331.974 245.721C333.457 245.915 334.928 246.146 336.386 246.415L336.321 246.769C337.785 247.039 339.236 247.346 340.672 247.69L340.756 247.34C342.209 247.687 343.648 248.072 345.071 248.493L344.969 248.838C346.395 249.26 347.806 249.718 349.2 250.212L349.32 249.873C350.727 250.371 352.117 250.905 353.489 251.474L353.352 251.807C354.724 252.376 356.079 252.98 357.414 253.618L357.569 253.293C358.915 253.937 360.242 254.614 361.548 255.324L361.376 255.641C362.68 256.351 363.964 257.094 365.226 257.869L365.415 257.562C366.685 258.342 367.934 259.155 369.159 259.999L368.955 260.295C370.178 261.137 371.377 262.01 372.552 262.913L372.771 262.627C373.953 263.535 375.11 264.473 376.242 265.441L376.008 265.714C377.135 266.678 378.237 267.671 379.313 268.692L379.56 268.431C380.641 269.456 381.694 270.51 382.719 271.59L382.458 271.838C383.479 272.913 384.472 274.015 385.436 275.143L385.709 274.909C386.677 276.04 387.615 277.197 388.523 278.379L388.237 278.598C389.14 279.773 390.013 280.972 390.855 282.195L391.152 281.991C391.995 283.216 392.808 284.465 393.588 285.735L393.281 285.924C394.057 287.186 394.8 288.47 395.509 289.775L395.826 289.602C396.536 290.908 397.214 292.235 397.857 293.581L397.532 293.736C398.17 295.071 398.774 296.426 399.343 297.799L399.676 297.661C400.245 299.033 400.779 300.423 401.278 301.83L400.938 301.951C401.432 303.344 401.89 304.755 402.312 306.181L402.657 306.079C403.078 307.502 403.463 308.941 403.811 310.394L403.46 310.478C403.804 311.914 404.111 313.365 404.381 314.829L404.735 314.764C405.004 316.222 405.235 317.693 405.429 319.177L405.072 319.223C405.263 320.686 405.416 322.161 405.532 323.647L405.891 323.619C406.005 325.096 406.083 326.583 406.121 328.08L405.761 328.089C405.78 328.831 405.79 329.574 405.79 330.32V332.463H406.15V336.749H405.79V341.036H406.15V345.322H405.79V349.608H406.15V353.894H405.79V358.181H406.15V362.467H405.79V366.753H406.15V371.039H405.79V375.326H406.15V379.612H405.79V383.898H406.15V388.184H405.79V392.471H406.15V396.757H405.79V398.54H403.861V398.9H399.284V398.54H394.707V398.9H390.13V398.54H385.553V398.9H380.976V398.54H376.399V398.9H371.821V398.54H367.244V398.9H362.667V398.54H358.09V398.9H353.513V398.54H348.936V398.9H344.359V398.54H342.07C341.324 398.54 340.581 398.531 339.839 398.511L339.83 398.871C338.333 398.833 336.846 398.756 335.369 398.641L335.397 398.282C333.911 398.167 332.436 398.013 330.973 397.822L330.926 398.179C329.443 397.985 327.972 397.754 326.514 397.485L326.579 397.131C325.115 396.862 323.664 396.554 322.228 396.211L322.144 396.561C320.691 396.213 319.252 395.828 317.829 395.407L317.931 395.062C316.505 394.64 315.094 394.182 313.7 393.688L313.58 394.028C312.173 393.529 310.783 392.995 309.411 392.426L309.548 392.093C308.176 391.524 306.821 390.92 305.486 390.282L305.331 390.607C303.985 389.964 302.658 389.286 301.352 388.576L301.524 388.26C300.22 387.55 298.936 386.807 297.674 386.032L297.485 386.338C296.215 385.558 294.966 384.746 293.741 383.902L293.945 383.605C292.722 382.763 291.523 381.89 290.348 380.988L290.129 381.273C288.947 380.365 287.79 379.427 286.658 378.46L286.892 378.186C285.765 377.222 284.663 376.229 283.587 375.208L283.34 375.469C282.259 374.444 281.206 373.391 280.181 372.311L280.442 372.063C279.421 370.987 278.428 369.885 277.464 368.758L277.191 368.992C276.223 367.86 275.285 366.703 274.377 365.522L274.663 365.302C273.76 364.127 272.887 362.928 272.045 361.705L271.748 361.909C270.905 360.684 270.092 359.435 269.312 358.165L269.619 357.977C268.843 356.714 268.1 355.43 267.391 354.126L267.074 354.298C266.364 352.992 265.686 351.665 265.043 350.319L265.368 350.164C264.73 348.829 264.126 347.474 263.557 346.102L263.224 346.24C262.655 344.867 262.121 343.477 261.622 342.07L261.962 341.95C261.468 340.556 261.01 339.145 260.588 337.719L260.243 337.822C259.822 336.398 259.437 334.959 259.089 333.506L259.44 333.423C259.096 331.986 258.789 330.535 258.519 329.071L258.165 329.136C257.896 327.678 257.665 326.207 257.471 324.724L257.828 324.677C257.637 323.214 257.484 321.739 257.368 320.253L257.009 320.281C256.895 318.804 256.817 317.317 256.779 315.82L257.139 315.811C257.12 315.07 257.11 314.326 257.11 313.58V311.437H256.75V307.151H257.11V302.865H256.75V298.578H257.11V294.292H256.75V290.006H257.11V285.72H256.75V281.433H257.11V277.147H256.75V272.861H257.11V268.574H256.75V264.288H257.11V260.002H256.75V255.716H257.11V251.429H256.75Z" stroke="#6DA4AA" stroke-width="0.72" stroke-linejoin="round" stroke-dasharray="4.5 4.5"/>
<path d="M214.27 236H218.59V236.36H220.39V238.189H220.75V242.566H220.39V246.943H220.75V251.321H220.39V255.698H220.75V260.075H220.39V264.452H220.75V268.83H220.39V273.207H220.75V277.584H220.39V281.961H220.75V286.339H220.39V290.716H220.75V295.093H220.39V299.471H220.75V303.848H220.39V308.225H220.75V312.602H220.39V316.98H220.75V321.357H220.39V325.734H220.75V330.111H220.39V332.3C220.39 333.042 220.38 333.781 220.359 334.517L220.719 334.527C220.678 336.017 220.596 337.495 220.474 338.963L220.115 338.933C219.992 340.41 219.828 341.875 219.625 343.327L219.981 343.377C219.775 344.851 219.528 346.311 219.242 347.757L218.889 347.687C218.602 349.139 218.275 350.576 217.909 351.998L218.258 352.088C217.888 353.528 217.478 354.952 217.03 356.359L216.687 356.25C216.238 357.659 215.75 359.051 215.226 360.425L215.562 360.553C215.032 361.941 214.464 363.309 213.86 364.658L213.531 364.51C212.927 365.859 212.286 367.187 211.61 368.494L211.929 368.659C211.247 369.977 210.529 371.272 209.777 372.545L209.467 372.362C208.716 373.633 207.93 374.881 207.111 376.105L207.41 376.305C206.585 377.537 205.727 378.744 204.836 379.926L204.548 379.71C203.66 380.888 202.74 382.04 201.788 383.166L202.063 383.398C201.107 384.53 200.119 385.634 199.102 386.71L198.84 386.463C197.827 387.534 196.784 388.577 195.713 389.59L195.96 389.852C194.884 390.869 193.78 391.857 192.648 392.814L192.416 392.539C191.29 393.49 190.138 394.41 188.959 395.299L189.176 395.586C187.994 396.477 186.787 397.335 185.555 398.16L185.354 397.861C184.131 398.68 182.883 399.466 181.612 400.217L181.795 400.527C180.522 401.28 179.226 401.998 177.909 402.68L177.743 402.36C176.437 403.036 175.108 403.677 173.76 404.282L173.908 404.61C172.559 405.214 171.19 405.782 169.803 406.312L169.675 405.976C168.301 406.501 166.909 406.988 165.5 407.437L165.609 407.78C164.202 408.228 162.778 408.638 161.338 409.008L161.248 408.659C159.826 409.025 158.389 409.352 156.937 409.639L157.007 409.993C155.561 410.279 154.1 410.525 152.627 410.732L152.577 410.375C151.125 410.578 149.659 410.742 148.183 410.865L148.213 411.224C146.745 411.346 145.266 411.428 143.777 411.469L143.767 411.11C143.031 411.13 142.291 411.14 141.55 411.14H139.39V411.5H135.07V411.14H130.75V411.5H126.43V411.14H122.11V411.5H117.79V411.14H113.47V411.5H109.15V411.14H104.83V411.5H100.51V411.14H96.1899V411.5H91.8699V411.14H87.5499V411.5H83.2299V411.14H78.9099V411.5H74.5899V411.14H70.2699V411.5H65.9499V411.14H61.6299V411.5H57.3099V411.14H55.5099V409.311H55.1499V404.934H55.5099V400.557H55.1499V396.18H55.5099V391.802H55.1499V387.425H55.5099V383.048H55.1499V378.671H55.5099V374.293H55.1499V369.916H55.5099V365.539H55.1499V361.161H55.5099V356.784H55.1499V352.407H55.5099V348.03H55.1499V343.652H55.5099V339.275H55.1499V334.898H55.5099V330.521H55.1499V326.143H55.5099V321.766H55.1499V317.389H55.5099V315.2C55.5099 314.459 55.5201 313.719 55.5405 312.983L55.1806 312.973C55.2217 311.484 55.304 310.005 55.4262 308.537L55.7849 308.567C55.9079 307.091 56.0717 305.625 56.2749 304.173L55.9184 304.123C56.1246 302.65 56.3713 301.189 56.6574 299.743L57.0106 299.813C57.2978 298.361 57.6248 296.924 57.9906 295.502L57.6419 295.412C58.0123 293.972 58.4221 292.548 58.8703 291.141L59.2133 291.25C59.6621 289.841 60.1495 288.449 60.6742 287.075L60.3379 286.947C60.8678 285.56 61.4355 284.191 62.0399 282.843L62.3684 282.99C62.9726 281.642 63.6136 280.313 64.2901 279.007L63.9704 278.841C64.6524 277.524 65.3703 276.228 66.1229 274.955L66.4328 275.138C67.184 273.867 67.9698 272.619 68.7891 271.396L68.4899 271.195C69.3147 269.963 70.1732 268.756 71.064 267.574L71.3514 267.791C72.2396 266.612 73.16 265.46 74.1114 264.334L73.8364 264.102C74.7929 262.97 75.7806 261.866 76.7981 260.79L77.0597 261.037C78.0729 259.966 79.1158 258.923 80.1871 257.91L79.9397 257.648C81.0156 256.631 82.12 255.643 83.2516 254.687L83.484 254.962C84.6096 254.01 85.7621 253.09 86.9404 252.202L86.7237 251.914C87.9056 251.023 89.1131 250.165 90.3451 249.34L90.5454 249.639C91.7691 248.82 93.0169 248.034 94.2877 247.283L94.1045 246.973C95.3775 246.221 96.6734 245.503 97.9909 244.821L98.1564 245.14C99.4632 244.464 100.791 243.823 102.14 243.219L101.992 242.89C103.341 242.286 104.709 241.718 106.097 241.188L106.225 241.524C107.599 241 108.991 240.512 110.4 240.064L110.291 239.72C111.698 239.272 113.122 238.863 114.562 238.492L114.652 238.841C116.074 238.475 117.511 238.148 118.963 237.861L118.893 237.508C120.339 237.222 121.799 236.975 123.273 236.769L123.323 237.125C124.775 236.922 126.24 236.758 127.717 236.635L127.687 236.276C129.155 236.154 130.634 236.072 132.123 236.031L132.133 236.391C132.869 236.37 133.608 236.36 134.35 236.36H136.51V236H140.83V236.36H145.15V236H149.47V236.36H153.79V236H158.11V236.36H162.43V236H166.75V236.36H171.07V236H175.39V236.36H179.71V236H184.03V236.36H188.35V236H192.67V236.36H196.99V236H201.31V236.36H205.63V236H209.95V236.36H214.27V236Z" stroke="#004E56" stroke-width="0.72" stroke-linejoin="round" stroke-dasharray="4.5 4.5"/>
<path d="M421.27 31.7H425.59V32.06H427.39V33.8886H427.75V38.2658H427.39V42.6431H427.75V47.0204H427.39V51.3977H427.75V55.7749H427.39V60.1522H427.75V64.5295H427.39V68.9068H427.75V73.284H427.39V77.6613H427.75V82.0386H427.39V86.4159H427.75V90.7931H427.39V95.1704H427.75V99.5477H427.39V103.925H427.75V108.302H427.39V112.679H427.75V117.057H427.39V121.434H427.75V125.811H427.39V128C427.39 128.742 427.38 129.481 427.359 130.217L427.719 130.227C427.678 131.716 427.596 133.195 427.474 134.663L427.115 134.633C426.992 136.11 426.828 137.575 426.625 139.027L426.981 139.077C426.775 140.55 426.528 142.011 426.242 143.457L425.889 143.387C425.602 144.839 425.275 146.276 424.909 147.698L425.258 147.788C424.888 149.228 424.478 150.652 424.03 152.059L423.687 151.95C423.238 153.359 422.75 154.751 422.226 156.125L422.562 156.253C422.032 157.641 421.464 159.009 420.86 160.358L420.531 160.21C419.927 161.559 419.286 162.887 418.61 164.193L418.929 164.359C418.247 165.676 417.529 166.972 416.777 168.245L416.467 168.062C415.716 169.333 414.93 170.581 414.111 171.804L414.41 172.005C413.585 173.237 412.727 174.444 411.836 175.626L411.548 175.409C410.66 176.588 409.74 177.74 408.788 178.866L409.063 179.098C408.107 180.23 407.119 181.334 406.102 182.41L405.84 182.163C404.827 183.234 403.784 184.277 402.713 185.29L402.96 185.552C401.884 186.569 400.78 187.557 399.648 188.513L399.416 188.238C398.29 189.19 397.138 190.11 395.959 190.998L396.176 191.286C394.994 192.177 393.787 193.035 392.555 193.86L392.354 193.561C391.131 194.38 389.883 195.166 388.612 195.917L388.795 196.227C387.522 196.979 386.226 197.697 384.909 198.379L384.743 198.06C383.437 198.736 382.108 199.377 380.76 199.981L380.908 200.31C379.559 200.914 378.19 201.482 376.803 202.012L376.675 201.676C375.301 202.2 373.909 202.688 372.5 203.137L372.609 203.48C371.202 203.928 369.778 204.338 368.338 204.708L368.248 204.359C366.826 204.725 365.389 205.052 363.937 205.339L364.007 205.692C362.561 205.979 361.1 206.225 359.627 206.431L359.577 206.075C358.125 206.278 356.659 206.442 355.183 206.565L355.213 206.924C353.745 207.046 352.266 207.128 350.777 207.169L350.767 206.809C350.031 206.83 349.291 206.84 348.55 206.84H346.39V207.2H342.07V206.84H337.75V207.2H333.43V206.84H329.11V207.2H324.79V206.84H320.47V207.2H316.15V206.84H311.83V207.2H307.51V206.84H303.19V207.2H298.87V206.84H294.55V207.2H290.23V206.84H285.91V207.2H281.59V206.84H277.27V207.2H272.95V206.84H268.63V207.2H264.31V206.84H262.51V205.011H262.15V200.634H262.51V196.257H262.15V191.879H262.51V187.502H262.15V183.125H262.51V178.748H262.15V174.37H262.51V169.993H262.15V165.616H262.51V161.239H262.15V156.861H262.51V152.484H262.15V148.107H262.51V143.729H262.15V139.352H262.51V134.975H262.15V130.598H262.51V126.22H262.15V121.843H262.51V117.466H262.15V113.089H262.51V110.9C262.51 110.158 262.52 109.419 262.54 108.683L262.181 108.673C262.222 107.184 262.304 105.705 262.426 104.237L262.785 104.267C262.908 102.79 263.072 101.325 263.275 99.8727L262.918 99.8228C263.125 98.3495 263.371 96.8892 263.657 95.4431L264.011 95.513C264.298 94.0612 264.625 92.6237 264.991 91.2018L264.642 91.1122C265.012 89.6722 265.422 88.248 265.87 86.8409L266.213 86.9502C266.662 85.5409 267.15 84.1487 267.674 82.775L267.338 82.6466C267.868 81.2594 268.436 79.8909 269.04 78.5423L269.368 78.6896C269.973 77.3414 270.614 76.0132 271.29 74.7064L270.97 74.5409C271.652 73.2234 272.37 71.9276 273.123 70.6546L273.433 70.8378C274.184 69.567 274.97 68.3191 275.789 67.0955L275.49 66.8952C276.315 65.6632 277.173 64.4556 278.064 63.2738L278.351 63.4905C279.24 62.3122 280.16 61.1596 281.111 60.0341L280.836 59.8017C281.793 58.6701 282.781 57.5657 283.798 56.4898L284.06 56.7372C285.073 55.6658 286.116 54.6229 287.187 53.6097L286.94 53.3482C288.016 52.3307 289.12 51.343 290.252 50.3865L290.484 50.6614C291.61 49.71 292.762 48.7896 293.94 47.9015L293.724 47.614C294.906 46.7232 296.113 45.8648 297.345 45.04L297.545 45.3391C298.769 44.5199 300.017 43.734 301.288 42.9828L301.105 42.6729C302.378 41.9204 303.673 41.2025 304.991 40.5205L305.156 40.8402C306.463 40.1637 307.791 39.5227 309.14 38.9185L308.992 38.5899C310.341 37.9856 311.709 37.4178 313.097 36.8879L313.225 37.2242C314.599 36.6995 315.991 36.2122 317.4 35.7633L317.291 35.4203C318.698 34.9722 320.122 34.5623 321.562 34.1919L321.652 34.5406C323.074 34.1749 324.511 33.8478 325.963 33.5606L325.893 33.2074C327.339 32.9214 328.799 32.6746 330.273 32.4685L330.323 32.825C331.775 32.6217 333.24 32.458 334.717 32.335L334.687 31.9762C336.155 31.854 337.634 31.7718 339.123 31.7307L339.133 32.0905C339.869 32.0702 340.608 32.06 341.35 32.06H343.51V31.7H347.83V32.06H352.15V31.7H356.47V32.06H360.79V31.7H365.11V32.06H369.43V31.7H373.75V32.06H378.07V31.7H382.39V32.06H386.71V31.7H391.03V32.06H395.35V31.7H399.67V32.06H403.99V31.7H408.31V32.06H412.63V31.7H416.95V32.06H421.27V31.7Z" stroke="#004E56" stroke-width="0.72" stroke-linejoin="round" stroke-dasharray="4.5 4.5"/>
<path d="M234.25 79.4C234.25 35.659 269.709 0.199951 313.45 0.199951H417.85V110.36C417.85 154.101 382.391 189.56 338.65 189.56H234.25V79.4Z" fill="#004E56"/>
<path d="M71.3501 60.6296V56.3433H71.7101V54.5602H73.6387V54.2002H78.2158V54.5602H82.7929V54.2002H87.3701V54.5602H91.9472V54.2002H96.5244V54.5602H101.102V54.2002H105.679V54.5602H110.256V54.2002H114.833V54.5602H119.41V54.2002H123.987V54.5602H128.564V54.2002H133.141V54.5602H135.43C136.176 54.5602 136.919 54.5698 137.661 54.5889L137.67 54.229C139.167 54.2676 140.654 54.3447 142.131 54.4595L142.103 54.8184C143.589 54.9338 145.064 55.0874 146.527 55.2783L146.574 54.9213C148.057 55.1148 149.528 55.3464 150.986 55.615L150.921 55.9691C152.385 56.2388 153.836 56.546 155.272 56.8897L155.356 56.5396C156.809 56.8873 158.248 57.2721 159.671 57.6931L159.569 58.0383C160.995 58.4602 162.406 58.9184 163.8 59.412L163.92 59.0727C165.327 59.5711 166.717 60.1053 168.09 60.6743L167.952 61.0069C169.324 61.5761 170.679 62.1802 172.014 62.8182L172.169 62.4934C173.515 63.1366 174.842 63.814 176.148 64.5245L175.976 64.8408C177.28 65.5506 178.564 66.2936 179.826 67.0687L180.015 66.762C181.285 67.5422 182.534 68.3548 183.759 69.1986L183.555 69.4951C184.778 70.3369 185.977 71.2098 187.152 72.1128L187.372 71.8274C188.553 72.7353 189.71 73.6735 190.842 74.6408L190.608 74.9144C191.735 75.8784 192.837 76.8713 193.913 77.8921L194.16 77.631C195.241 78.6563 196.294 79.7097 197.319 80.7898L197.058 81.0376C198.079 82.113 199.072 83.215 200.036 84.3426L200.309 84.1087C201.277 85.2401 202.215 86.3972 203.123 87.5787L202.837 87.7981C203.74 88.9732 204.613 90.1725 205.455 91.395L205.752 91.1908C206.595 92.4163 207.408 93.6648 208.188 94.9354L207.882 95.1238C208.657 96.386 209.4 97.67 210.11 98.9746L210.426 98.8026C211.136 100.108 211.814 101.435 212.457 102.781L212.132 102.936C212.77 104.272 213.374 105.626 213.943 106.999L214.276 106.861C214.845 108.233 215.379 109.623 215.878 111.03L215.538 111.151C216.032 112.544 216.49 113.955 216.912 115.381L217.257 115.279C217.678 116.702 218.063 118.141 218.411 119.594L218.061 119.678C218.404 121.114 218.712 122.565 218.981 124.029L219.335 123.964C219.604 125.422 219.835 126.893 220.029 128.377L219.672 128.423C219.863 129.886 220.016 131.362 220.132 132.847L220.491 132.819C220.606 134.296 220.683 135.783 220.721 137.28L220.361 137.29C220.38 138.031 220.39 138.774 220.39 139.52V141.663H220.75V145.95H220.39V150.236H220.75V154.522H220.39V158.808H220.75V163.095H220.39V167.381H220.75V171.667H220.39V175.953H220.75V180.24H220.39V184.526H220.75V188.812H220.39V193.098H220.75V197.385H220.39V201.671H220.75V205.957H220.39V207.74H218.462V208.1H213.884V207.74H209.307V208.1H204.73V207.74H200.153V208.1H195.576V207.74H190.999V208.1H186.422V207.74H181.844V208.1H177.267V207.74H172.69V208.1H168.113V207.74H163.536V208.1H158.959V207.74H156.67C155.924 207.74 155.181 207.731 154.439 207.711L154.43 208.071C152.933 208.033 151.446 207.956 149.969 207.841L149.997 207.482C148.511 207.367 147.036 207.213 145.573 207.022L145.527 207.379C144.043 207.186 142.572 206.954 141.114 206.685L141.179 206.331C139.715 206.062 138.264 205.754 136.828 205.411L136.744 205.761C135.291 205.413 133.852 205.028 132.429 204.607L132.531 204.262C131.105 203.84 129.694 203.382 128.301 202.888L128.18 203.228C126.773 202.729 125.383 202.195 124.011 201.626L124.149 201.294C122.776 200.724 121.421 200.12 120.086 199.482L119.931 199.807C118.585 199.164 117.258 198.486 115.952 197.776L116.125 197.46C114.82 196.75 113.536 196.007 112.274 195.232L112.085 195.538C110.815 194.758 109.566 193.946 108.341 193.102L108.545 192.805C107.322 191.964 106.123 191.091 104.948 190.188L104.729 190.473C103.547 189.565 102.39 188.627 101.259 187.66L101.493 187.386C100.365 186.422 99.2629 185.429 98.1876 184.408L97.9397 184.669C96.8596 183.644 95.8063 182.591 94.7809 181.511L95.042 181.263C94.0212 180.187 93.0283 179.085 92.0643 177.958L91.7907 178.192C90.8234 177.06 89.8852 175.903 88.9773 174.722L89.2627 174.502C88.3597 173.327 87.4868 172.128 86.645 170.905L86.3485 171.11C85.5047 169.884 84.6921 168.636 83.9119 167.365L84.2186 167.177C83.4435 165.914 82.7005 164.63 81.9907 163.326L81.6744 163.498C80.9639 162.192 80.2865 160.865 79.6433 159.519L79.9681 159.364C79.3301 158.029 78.726 156.674 78.1568 155.302L77.8242 155.44C77.2552 154.067 76.7209 152.677 76.2226 151.27L76.5619 151.15C76.0683 149.756 75.6101 148.346 75.1882 146.919L74.843 147.022C74.422 145.598 74.0372 144.16 73.6895 142.706L74.0396 142.623C73.6959 141.186 73.3887 139.735 73.119 138.271L72.7649 138.336C72.4963 136.878 72.2647 135.407 72.0712 133.924L72.4282 133.877C72.2373 132.414 72.0837 130.939 71.9683 129.453L71.6094 129.481C71.4946 128.004 71.4175 126.517 71.3789 125.02L71.7388 125.011C71.7197 124.27 71.7101 123.526 71.7101 122.78V120.637H71.3501V116.351H71.7101V112.065H71.3501V107.778H71.7101V103.492H71.3501V99.2058H71.7101V94.9196H71.3501V90.6333H71.7101V86.3471H71.3501V82.0608H71.7101V77.7746H71.3501V73.4883H71.7101V69.2021H71.3501V64.9158H71.7101V60.6296H71.3501Z" stroke="#6DA4AA" stroke-width="0.72" stroke-linejoin="round" stroke-dasharray="4.5 4.5"/>
<path d="M31.21 8.84003H122.65C166.391 8.84003 201.85 44.2991 201.85 88.04V188.84H110.41C66.669 188.84 31.21 153.381 31.21 109.64V8.84003Z" fill="#6DA4AA"/>
<path d="M0.25 296.84C0.25 253.099 35.709 217.64 79.45 217.64H204.01V348.68C204.01 392.421 168.551 427.88 124.81 427.88H0.25V296.84Z" fill="#004E56"/>
<path d="M236.41 217.64H314.17C357.911 217.64 393.37 253.099 393.37 296.84V385.4H315.61C271.869 385.4 236.41 349.941 236.41 306.2V217.64Z" fill="#6DA4AA"/>
</svg>
