<svg width="240" height="78" viewBox="0 0 240 78" fill="none" xmlns="http://www.w3.org/2000/svg">
<path d="M31.768 41.128C27.7787 41.128 24.824 39.9973 22.904 37.736C22.2213 36.9253 21.6667 35.848 21.24 34.504C20.8133 33.16 20.6 31.528 20.6 29.608C20.6 27.688 20.9093 25.9707 21.528 24.456C22.168 22.92 23.032 21.736 24.12 20.904C26.232 19.3467 28.7813 18.568 31.768 18.568C32.6213 18.568 33.4533 18.6427 34.264 18.792C35.0747 18.92 35.6827 19.0587 36.088 19.208L36.664 19.432L36.568 19.752C35.1173 19.176 33.5173 18.888 31.768 18.888C29.5067 18.888 27.6187 19.624 26.104 21.096C24.952 22.184 24.1413 23.784 23.672 25.896C23.3947 27.0907 23.256 28.552 23.256 30.28C23.256 32.008 23.5013 33.608 23.992 35.08C24.4827 36.5307 25.0373 37.608 25.656 38.312C26.296 39.016 27.064 39.5813 27.96 40.008C28.856 40.4133 29.5707 40.648 30.104 40.712C30.6373 40.776 31.2773 40.808 32.024 40.808C32.792 40.808 33.656 40.7333 34.616 40.584C35.576 40.4347 36.3013 40.296 36.792 40.168L37.528 39.944L37.624 40.264C36.0027 40.84 34.0507 41.128 31.768 41.128ZM43.39 41C41.5127 41 40.3287 40.5093 39.838 39.528C39.7313 39.3147 39.678 39.1227 39.678 38.952V17.032H41.918V38.728C41.918 39.3467 42.0353 39.8267 42.27 40.168C42.526 40.488 42.782 40.6587 43.038 40.68L43.39 40.744H44.382V41H43.39ZM48.7297 41C47.8551 41 47.1831 40.808 46.7137 40.424C46.2657 40.04 46.0311 39.656 46.0097 39.272L45.9777 38.728V25H48.2177V38.728C48.2177 39.3467 48.3351 39.8267 48.5697 40.168C48.8257 40.488 49.0711 40.6587 49.3057 40.68L49.6897 40.744H50.6817V41H48.7297ZM46.1697 21.416C45.9137 21.16 45.7857 20.84 45.7857 20.456C45.7857 20.072 45.9137 19.752 46.1697 19.496C46.4257 19.2187 46.7457 19.08 47.1297 19.08C47.5137 19.08 47.8337 19.2187 48.0897 19.496C48.3671 19.752 48.5057 20.072 48.5057 20.456C48.5057 20.84 48.3671 21.16 48.0897 21.416C47.8337 21.672 47.5137 21.8 47.1297 21.8C46.7457 21.8 46.4257 21.672 46.1697 21.416ZM65.198 41C64.3233 41 63.6513 40.808 63.182 40.424C62.734 40.04 62.4993 39.656 62.478 39.272L62.446 38.728V28.68C62.446 26.9947 62.0087 25.9173 61.134 25.448C60.686 25.2347 60.1313 25.128 59.47 25.128C58.1047 25.128 56.878 25.672 55.79 26.76C54.702 27.8267 54.158 28.7867 54.158 29.64V41H51.918V25H54.158V28.648C54.5207 27.7307 55.1927 26.8773 56.174 26.088C57.1553 25.2773 58.2327 24.872 59.406 24.872C60.5793 24.872 61.5287 24.9893 62.254 25.224C63.0007 25.4373 63.5447 25.7467 63.886 26.152C64.4193 26.8133 64.686 27.6667 64.686 28.712V38.728C64.686 39.3467 64.8033 39.8267 65.038 40.168C65.294 40.488 65.55 40.6587 65.806 40.68L66.158 40.744H67.15V41H65.198ZM71.3217 41C70.4471 41 69.7751 40.808 69.3057 40.424C68.8577 40.04 68.6231 39.656 68.6017 39.272L68.5697 38.728V25H70.8097V38.728C70.8097 39.3467 70.9271 39.8267 71.1617 40.168C71.4177 40.488 71.6631 40.6587 71.8977 40.68L72.2817 40.744H73.2737V41H71.3217ZM68.7617 21.416C68.5057 21.16 68.3777 20.84 68.3777 20.456C68.3777 20.072 68.5057 19.752 68.7617 19.496C69.0177 19.2187 69.3377 19.08 69.7217 19.08C70.1057 19.08 70.4257 19.2187 70.6817 19.496C70.9591 19.752 71.0977 20.072 71.0977 20.456C71.0977 20.84 70.9591 21.16 70.6817 21.416C70.4257 21.672 70.1057 21.8 69.7217 21.8C69.3377 21.8 69.0177 21.672 68.7617 21.416ZM74.51 33.576C74.51 30.8027 75.182 28.6587 76.526 27.144C77.87 25.6293 79.886 24.872 82.574 24.872C83.8327 24.872 85.102 25.192 86.382 25.832V25H88.622V49H86.382V38.216C85.9767 38.9627 85.3047 39.624 84.366 40.2C83.4273 40.776 82.318 41.064 81.038 41.064C76.686 40.9573 74.51 38.4613 74.51 33.576ZM81.07 40.808C82.4993 40.808 83.726 40.424 84.75 39.656C85.774 38.888 86.318 38.1307 86.382 37.384V26.12C84.8673 25.4587 83.566 25.128 82.478 25.128C80.5793 25.128 79.15 25.8747 78.19 27.368C77.23 28.84 76.75 30.9093 76.75 33.576C76.75 38.3973 78.19 40.808 81.07 40.808ZM93.3585 37.32C93.3585 39.0053 93.8065 40.0827 94.7025 40.552C95.1292 40.7653 95.6732 40.872 96.3345 40.872C97.6785 40.872 98.8732 40.36 99.9185 39.336C100.985 38.312 101.561 37.3627 101.647 36.488V25H103.887V38.728C103.887 39.3467 104.004 39.8267 104.239 40.168C104.495 40.488 104.751 40.6587 105.007 40.68L105.359 40.744H106.351V41H104.399C103.524 41 102.852 40.808 102.383 40.424C101.935 40.04 101.7 39.656 101.679 39.272L101.647 38.728V37.352C101.263 38.2693 100.58 39.1333 99.5985 39.944C98.6172 40.7333 97.5398 41.128 96.3665 41.128C95.2145 41.128 94.2652 41.0213 93.5185 40.808C92.7932 40.5733 92.2705 40.2533 91.9505 39.848C91.3958 39.1867 91.1185 38.3333 91.1185 37.288V25H93.3585V37.32ZM109.434 33.192C109.434 35.8373 109.893 37.7787 110.81 39.016C111.749 40.2533 112.976 40.872 114.49 40.872C116.624 40.872 118.522 40.552 120.186 39.912L120.282 40.136C118.576 40.7973 116.645 41.128 114.49 41.128C112.357 41.128 110.618 40.488 109.274 39.208C107.93 37.928 107.258 35.9547 107.258 33.288C107.258 30.6213 107.962 28.552 109.37 27.08C110.778 25.608 112.57 24.872 114.746 24.872C116.496 24.872 117.968 25.3947 119.162 26.44C120.357 27.4853 120.954 29.032 120.954 31.08C120.954 31.1867 120.954 31.2933 120.954 31.4H109.53C109.466 31.976 109.434 32.5733 109.434 33.192ZM118.778 31.144C118.757 29.096 118.362 27.5813 117.594 26.6C116.826 25.6187 115.834 25.128 114.618 25.128C113.402 25.128 112.314 25.6613 111.354 26.728C110.416 27.7947 109.818 29.2667 109.562 31.144H118.778ZM134.358 41H131.702V18.6H134.358V28.904H144.758V18.6H147.414V41H144.758V29.224H134.358V41ZM153.52 46.728C152.837 48.2427 151.994 49 150.992 49C150.544 49 150.021 48.9253 149.424 48.776V48.52C149.914 48.648 150.352 48.712 150.736 48.712C151.824 48.712 152.656 48.0507 153.232 46.728L155.92 41H155.888L149.936 25H152.176L157.136 38.344L162.032 28.2C162.288 27.752 162.416 27.2187 162.416 26.6C162.416 25.9813 162.245 25.512 161.904 25.192L162.096 25C162.181 25.0427 162.288 25.1707 162.416 25.384C162.565 25.5973 162.65 25.7893 162.672 25.96C162.714 26.1307 162.736 26.2907 162.736 26.44C162.736 27.016 162.608 27.6027 162.352 28.2L156.208 41L153.52 46.728ZM164.137 25H166.377V28.968C166.74 27.9867 167.412 27.0587 168.393 26.184C169.375 25.3093 170.484 24.872 171.721 24.872C176.052 24.872 178.217 27.4107 178.217 32.488C178.217 38.248 175.423 41.128 169.833 41.128C168.831 41.128 167.679 40.8933 166.377 40.424V49H164.137V25ZM171.689 25.128C170.367 25.128 169.172 25.704 168.105 26.856C167.039 27.9867 166.463 29.0107 166.377 29.928V40.136C167.679 40.6267 168.82 40.872 169.801 40.872C173.919 40.872 175.977 38.0667 175.977 32.456C175.977 27.5707 174.548 25.128 171.689 25.128ZM193.362 41C192.487 41 191.815 40.808 191.346 40.424C190.898 40.04 190.663 39.656 190.642 39.272L190.61 38.728V28.68C190.61 26.9947 190.173 25.9173 189.298 25.448C188.85 25.2347 188.295 25.128 187.634 25.128C186.269 25.128 185.042 25.672 183.954 26.76C182.866 27.8267 182.322 28.7867 182.322 29.64V41H180.082V25H182.322V28.648C182.685 27.7307 183.357 26.8773 184.338 26.088C185.319 25.2773 186.397 24.872 187.57 24.872C188.743 24.872 189.693 24.9893 190.418 25.224C191.165 25.4373 191.709 25.7467 192.05 26.152C192.583 26.8133 192.85 27.6667 192.85 28.712V38.728C192.85 39.3467 192.967 39.8267 193.202 40.168C193.458 40.488 193.714 40.6587 193.97 40.68L194.322 40.744H195.314V41H193.362ZM202.525 41.128C200.285 41.128 198.461 40.488 197.053 39.208C195.645 37.928 194.941 35.9547 194.941 33.288C194.941 30.6213 195.666 28.552 197.117 27.08C198.589 25.608 200.445 24.872 202.685 24.872C204.946 24.872 206.781 25.512 208.189 26.792C209.597 28.072 210.301 30.0453 210.301 32.712C210.301 35.3787 209.565 37.448 208.093 38.92C206.642 40.392 204.786 41.128 202.525 41.128ZM202.749 25.128C201.127 25.128 199.783 25.8533 198.717 27.304C197.65 28.7333 197.117 30.7387 197.117 33.32C197.117 35.88 197.607 37.7787 198.589 39.016C199.57 40.2533 200.871 40.872 202.493 40.872C204.114 40.872 205.458 40.1573 206.525 38.728C207.591 37.2773 208.125 35.272 208.125 32.712C208.125 30.1307 207.634 28.2213 206.653 26.984C205.671 25.7467 204.37 25.128 202.749 25.128ZM220.862 26.12C220.52 25.8427 219.966 25.608 219.198 25.416C218.451 25.224 217.886 25.128 217.502 25.128C217.118 25.128 216.894 25.128 216.83 25.128C215.678 25.1493 214.846 25.448 214.334 26.024C213.822 26.5787 213.566 27.208 213.566 27.912C213.566 28.616 213.79 29.2133 214.238 29.704C214.686 30.1733 215.24 30.5467 215.902 30.824C216.584 31.08 217.31 31.3787 218.078 31.72C218.867 32.0613 219.592 32.4133 220.254 32.776C220.936 33.1173 221.502 33.6293 221.95 34.312C222.398 34.9733 222.622 35.8053 222.622 36.808C222.622 37.8107 222.27 38.664 221.566 39.368C220.862 40.072 220.072 40.5413 219.198 40.776C218.344 41.0107 217.416 41.128 216.414 41.128C214.238 41.128 212.606 40.648 211.518 39.688L211.71 39.496C212.136 39.9013 212.766 40.232 213.598 40.488C214.451 40.744 215.272 40.872 216.062 40.872C217.32 40.872 218.355 40.5307 219.166 39.848C219.998 39.144 220.414 38.28 220.414 37.256C220.414 36.2107 220.104 35.3787 219.486 34.76C218.867 34.12 218.11 33.6293 217.214 33.288C216.339 32.9253 215.454 32.5733 214.558 32.232C213.662 31.8693 212.904 31.3787 212.286 30.76C211.667 30.12 211.358 29.384 211.358 28.552C211.358 27.72 211.55 27.048 211.934 26.536C212.318 26.0027 212.83 25.6293 213.47 25.416C214.558 25.0533 215.646 24.872 216.734 24.872C218.568 24.872 219.998 25.2133 221.022 25.896L220.862 26.12ZM226.49 33.192C226.49 35.8373 226.948 37.7787 227.866 39.016C228.804 40.2533 230.031 40.872 231.546 40.872C233.679 40.872 235.578 40.552 237.242 39.912L237.338 40.136C235.631 40.7973 233.7 41.128 231.546 41.128C229.412 41.128 227.674 40.488 226.33 39.208C224.986 37.928 224.314 35.9547 224.314 33.288C224.314 30.6213 225.018 28.552 226.426 27.08C227.834 25.608 229.626 24.872 231.802 24.872C233.551 24.872 235.023 25.3947 236.218 26.44C237.412 27.4853 238.01 29.032 238.01 31.08C238.01 31.1867 238.01 31.2933 238.01 31.4H226.586C226.522 31.976 226.49 32.5733 226.49 33.192ZM235.834 31.144C235.812 29.096 235.418 27.5813 234.65 26.6C233.882 25.6187 232.89 25.128 231.674 25.128C230.458 25.128 229.37 25.6613 228.41 26.728C227.471 27.7947 226.874 29.2667 226.618 31.144H235.834Z" fill="#004E56"/>
<path d="M33.048 51.944C31.1067 51.1973 29.272 50.824 27.544 50.824C25.8373 50.824 24.504 51.1867 23.544 51.912C22.584 52.6373 22.104 53.64 22.104 54.92C22.104 56.4773 22.9147 57.6827 24.536 58.536C25.2613 58.8987 26.0507 59.24 26.904 59.56C27.7787 59.8587 28.6533 60.2 29.528 60.584C30.4027 60.968 31.2027 61.4053 31.928 61.896C32.6533 62.3867 33.24 63.0693 33.688 63.944C34.136 64.7973 34.36 65.896 34.36 67.24C34.36 68.5627 33.9867 69.6933 33.24 70.632C32.4933 71.5707 31.5867 72.2107 30.52 72.552C29.4747 72.872 28.248 73.032 26.84 73.032C24.216 73.032 21.976 72.3813 20.12 71.08L20.28 70.824C20.984 71.3787 21.8907 71.8373 23 72.2C24.1307 72.5413 25.2827 72.712 26.456 72.712C28.184 72.712 29.656 72.3173 30.872 71.528C32.1093 70.7173 32.728 69.5333 32.728 67.976C32.728 66.2693 31.9173 64.936 30.296 63.976C29.5707 63.5493 28.7707 63.1547 27.896 62.792C27.0427 62.4293 26.1787 62.056 25.304 61.672C24.4293 61.2667 23.6293 60.8187 22.904 60.328C21.2827 59.2613 20.472 57.7467 20.472 55.784C20.472 54.2267 20.9947 52.968 22.04 52.008C23.0853 51.0267 24.6533 50.536 26.744 50.536C28.856 50.536 31 50.8987 33.176 51.624L33.048 51.944ZM43.6287 73.128C41.3887 73.128 39.5647 72.488 38.1567 71.208C36.7487 69.928 36.0447 67.9547 36.0447 65.288C36.0447 62.6213 36.7701 60.552 38.2207 59.08C39.6927 57.608 41.5487 56.872 43.7887 56.872C46.0501 56.872 47.8848 57.512 49.2928 58.792C50.7008 60.072 51.4048 62.0453 51.4048 64.712C51.4048 67.3787 50.6688 69.448 49.1968 70.92C47.7461 72.392 45.8901 73.128 43.6287 73.128ZM43.8527 57.128C42.2314 57.128 40.8874 57.8533 39.8207 59.304C38.7541 60.7333 38.2207 62.7387 38.2207 65.32C38.2207 67.88 38.7114 69.7787 39.6927 71.016C40.6741 72.2533 41.9754 72.872 43.5968 72.872C45.2181 72.872 46.5621 72.1573 47.6287 70.728C48.6954 69.2773 49.2288 67.272 49.2288 64.712C49.2288 62.1307 48.7381 60.2213 47.7568 58.984C46.7754 57.7467 45.4741 57.128 43.8527 57.128ZM60.735 57.128C59.2203 57.128 57.951 57.8533 56.927 59.304C55.9243 60.7547 55.423 62.76 55.423 65.32C55.423 67.88 55.8817 69.7787 56.799 71.016C57.7377 72.2533 58.9643 72.872 60.479 72.872C62.3777 72.872 64.063 72.552 65.535 71.912L65.631 72.136C64.1163 72.7973 62.3457 73.128 60.319 73.128C58.2923 73.128 56.607 72.488 55.263 71.208C53.919 69.928 53.247 67.9547 53.247 65.288C53.247 62.6213 53.951 60.552 55.359 59.08C56.767 57.608 58.559 56.872 60.735 56.872C61.951 56.872 63.071 57.1493 64.095 57.704C65.1403 58.2587 65.9083 59.1013 66.399 60.232H64.351C64.031 59.1867 63.5403 58.408 62.879 57.896C62.239 57.384 61.5243 57.128 60.735 57.128ZM71.2133 73C70.3386 73 69.6666 72.808 69.1973 72.424C68.7493 72.04 68.5146 71.656 68.4933 71.272L68.4613 70.728V57H70.7013V70.728C70.7013 71.3467 70.8186 71.8267 71.0533 72.168C71.3093 72.488 71.5546 72.6587 71.7893 72.68L72.1733 72.744H73.1653V73H71.2133ZM68.6533 53.416C68.3973 53.16 68.2693 52.84 68.2693 52.456C68.2693 52.072 68.3973 51.752 68.6533 51.496C68.9093 51.2187 69.2293 51.08 69.6133 51.08C69.9973 51.08 70.3173 51.2187 70.5733 51.496C70.8506 51.752 70.9893 52.072 70.9893 52.456C70.9893 52.84 70.8506 53.16 70.5733 53.416C70.3173 53.672 69.9973 53.8 69.6133 53.8C69.2293 53.8 68.9093 53.672 68.6533 53.416ZM87.6175 73C86.1668 73 85.1748 72.7227 84.6415 72.168C84.1508 71.6987 83.9055 71.2933 83.9055 70.952V70.28C82.8602 72.1787 81.1855 73.128 78.8815 73.128C76.1935 73.128 74.6682 71.912 74.3055 69.48C74.2628 69.224 74.2415 68.968 74.2415 68.712C74.2415 68.4347 74.2842 68.136 74.3695 67.816C74.4548 67.496 74.7002 67.144 75.1055 66.76C75.9162 65.992 77.6975 65.5227 80.4495 65.352C81.1322 65.288 81.7615 65.256 82.3375 65.256C82.9135 65.256 83.4362 65.2773 83.9055 65.32V60.008C83.8628 59.9867 83.8628 59.8907 83.9055 59.72C83.9482 59.528 83.9055 59.2933 83.7775 59.016C83.6708 58.7173 83.5215 58.4293 83.3295 58.152C83.1375 57.8747 82.7962 57.64 82.3055 57.448C81.8148 57.2347 81.1748 57.128 80.3855 57.128C79.5962 57.128 78.6682 57.2773 77.6015 57.576C76.5562 57.8533 75.7882 58.1307 75.2975 58.408L75.1695 58.184C77.0682 57.3093 78.9988 56.872 80.9615 56.872C83.1588 56.872 84.6095 57.2667 85.3135 58.056C85.8682 58.6747 86.1455 59.3253 86.1455 60.008V70.728C86.1455 71.3467 86.2628 71.8267 86.4975 72.168C86.7535 72.488 87.0095 72.6587 87.2655 72.68L87.6175 72.744H88.6095V73H87.6175ZM79.3935 72.872C80.5242 72.872 81.5375 72.488 82.4335 71.72C83.3508 70.9307 83.8415 70.1733 83.9055 69.448V65.576C83.3295 65.5333 82.7428 65.512 82.1455 65.512C81.5695 65.512 80.9935 65.544 80.4175 65.608C78.7962 65.8 77.7402 66.1627 77.2495 66.696C76.7588 67.2293 76.5135 67.9653 76.5135 68.904C76.5135 69.0747 76.5242 69.2667 76.5455 69.48C76.7375 71.7413 77.6868 72.872 79.3935 72.872ZM94.3553 73C92.4779 73 91.2939 72.5093 90.8033 71.528C90.6966 71.3147 90.6433 71.1227 90.6433 70.952V49.032H92.8833V70.728C92.8833 71.3467 93.0006 71.8267 93.2353 72.168C93.4913 72.488 93.7473 72.6587 94.0033 72.68L94.3553 72.744H95.3473V73H94.3553ZM97.6383 65.192C97.6383 67.8373 98.0969 69.7787 99.0143 71.016C99.9529 72.2533 101.18 72.872 102.694 72.872C104.828 72.872 106.726 72.552 108.39 71.912L108.486 72.136C106.78 72.7973 104.849 73.128 102.694 73.128C100.561 73.128 98.8223 72.488 97.4783 71.208C96.1343 69.928 95.4623 67.9547 95.4623 65.288C95.4623 62.6213 96.1663 60.552 97.5743 59.08C98.9823 57.608 100.774 56.872 102.95 56.872C104.7 56.872 106.172 57.3947 107.366 58.44C108.561 59.4853 109.158 61.032 109.158 63.08C109.158 63.1867 109.158 63.2933 109.158 63.4H97.7343C97.6703 63.976 97.6383 64.5733 97.6383 65.192ZM106.982 63.144C106.961 61.096 106.566 59.5813 105.798 58.6C105.03 57.6187 104.038 57.128 102.822 57.128C101.606 57.128 100.518 57.6613 99.5583 58.728C98.6196 59.7947 98.0223 61.2667 97.7663 63.144H106.982Z" fill="#6DA4AA"/>
<path d="M0.23291 0.772461H10.4765C14.1371 0.772461 17.1047 3.74 17.1047 7.40065V15.4147H6.62007C3.09254 15.4147 0.23291 12.5551 0.23291 9.02757V0.772461Z" fill="#6DA4AA"/>
<path d="M17.1538 17.7883L17.2666 28.2183C17.3061 31.8788 14.3709 34.8782 10.7104 34.9178L0.184654 35.0316L0.0692867 24.3606C0.0311517 20.8332 2.8597 17.9429 6.38703 17.9047L17.1538 17.7883Z" fill="#6DA4AA"/>
<path d="M37.833 0L37.9284 8.82048C37.9679 12.4809 35.0327 15.4804 31.3722 15.5199L21.2598 15.6293L21.1618 6.56777C21.1237 3.04044 23.9523 0.150069 27.4796 0.111934L37.833 0Z" fill="#6DA4AA"/>
</svg>
